<?xml version="1.0" encoding="utf-8"?>
<!-- Generator: Adobe Illustrator 27.0.0, SVG Export Plug-In . SVG Version: 6.00 Build 0)  -->
<svg version="1.1" id="Layer_1" xmlns="http://www.w3.org/2000/svg" xmlns:xlink="http://www.w3.org/1999/xlink" x="0px" y="0px"
	 viewBox="0 0 197.16 137.05" style="enable-background:new 0 0 197.16 137.05;" xml:space="preserve">
<style type="text/css">
	.st0{fill:black;}
</style>
<g>
	<g>
		<g>
			<g>
				<g>
					<g>
						<path class="st0" d="M98.58,99.36c-23.32,0-45.93-2.54-63.67-7.16C12.4,86.35,0,77.93,0,68.52S12.4,50.7,34.91,44.84
							l0.69,2.67C15.04,52.86,2.76,60.72,2.76,68.52c0,7.81,12.28,15.66,32.84,21.01c17.52,4.56,39.89,7.07,62.98,7.07
							c23.09,0,45.46-2.51,62.98-7.07c20.57-5.35,32.84-13.21,32.84-21.01c0-7.81-12.28-15.66-32.84-21.01l0.69-2.67
							c22.51,5.86,34.91,14.27,34.91,23.68s-12.4,17.82-34.91,23.68C144.51,96.82,121.9,99.36,98.58,99.36z"/>
					</g>
				</g>
			</g>
		</g>
	</g>
	<g>
		<g>
			<g>
				<g>
					<g>
						<path class="st0" d="M98.58,137.05c-37.78,0-68.52-30.74-68.52-68.52C30.06,30.74,60.8,0,98.58,0
							c37.78,0,68.52,30.74,68.52,68.52C167.1,106.31,136.36,137.05,98.58,137.05z M98.58,2.76c-36.26,0-65.77,29.5-65.77,65.77
							c0,36.26,29.5,65.77,65.77,65.77c36.26,0,65.77-29.5,65.77-65.77C164.35,32.26,134.84,2.76,98.58,2.76z"/>
					</g>
				</g>
			</g>
		</g>
	</g>
</g>
</svg>
