<?xml version="1.0" encoding="utf-8"?>
<!-- Generator: Adobe Illustrator 27.0.0, SVG Export Plug-In . SVG Version: 6.00 Build 0)  -->
<svg version="1.1" id="Layer_1" xmlns="http://www.w3.org/2000/svg" xmlns:xlink="http://www.w3.org/1999/xlink" x="0px" y="0px"
	 viewBox="0 0 159.89 168.46" style="enable-background:new 0 0 159.89 168.46;" xml:space="preserve">
<style type="text/css">
	.st0{fill:black;}
</style>
<g>
	<g>
		<g>
			<g>
				<g>
					<g>
						<path class="st0" d="M82.62,157.13c-37.78,0-68.52-30.74-68.52-68.52c0-37.78,30.74-68.52,68.52-68.52
							c37.78,0,68.52,30.74,68.52,68.52C151.15,126.39,120.41,157.13,82.62,157.13z M82.62,22.84c-36.26,0-65.77,29.5-65.77,65.77
							c0,36.26,29.5,65.77,65.77,65.77c36.26,0,65.77-29.5,65.77-65.77C148.39,52.34,118.89,22.84,82.62,22.84z"/>
					</g>
				</g>
			</g>
		</g>
	</g>
	<g>
		<g>
			<g>
				<g>
					<g>
						<path class="st0" d="M159.89,34.27c-33.39,0.49-33.79,0.88-34.27,34.27c-0.49-33.39-0.88-33.79-34.27-34.27
							c33.39-0.49,33.79-0.88,34.27-34.27C126.1,33.39,126.49,33.79,159.89,34.27z"/>
					</g>
				</g>
			</g>
		</g>
	</g>
	<g>
		<g>
			<g>
				<g>
					<g>
						<path class="st0" d="M68.54,134.19c-33.39,0.49-33.79,0.88-34.27,34.27c-0.49-33.39-0.88-33.79-34.27-34.27
							c33.39-0.49,33.79-0.88,34.27-34.27C34.76,133.31,35.15,133.7,68.54,134.19z"/>
					</g>
				</g>
			</g>
		</g>
	</g>
</g>
</svg>
