<?xml version="1.0" encoding="utf-8"?>
<!-- Generator: Adobe Illustrator 27.0.0, SVG Export Plug-In . SVG Version: 6.00 Build 0)  -->
<svg version="1.1" id="Layer_1" xmlns="http://www.w3.org/2000/svg" xmlns:xlink="http://www.w3.org/1999/xlink" x="0px" y="0px"
	 viewBox="0 0 196.02 131.6" style="enable-background:new 0 0 196.02 131.6;" xml:space="preserve">
<style type="text/css">
	.st0{fill:black;}
</style>
<g>
	<g>
		<g>
			<g>
				<g>
					<g>
						<path class="st0" d="M65.8,131.6C29.52,131.6,0,102.08,0,65.8C0,29.52,29.52,0,65.8,0c36.28,0,65.8,29.52,65.8,65.8
							C131.6,102.08,102.08,131.6,65.8,131.6z M65.8,2.76C31.04,2.76,2.76,31.04,2.76,65.8c0,34.76,28.28,63.04,63.04,63.04
							c34.76,0,63.04-28.28,63.04-63.04C128.84,31.04,100.56,2.76,65.8,2.76z"/>
					</g>
				</g>
			</g>
		</g>
	</g>
	<g>
		<g>
			<g>
				<g>
					<g>
						<path class="st0" d="M130.22,131.6c-36.28,0-65.8-29.52-65.8-65.8c0-36.28,29.52-65.8,65.8-65.8c36.28,0,65.8,29.52,65.8,65.8
							C196.02,102.08,166.5,131.6,130.22,131.6z M130.22,2.76c-34.76,0-63.04,28.28-63.04,63.04c0,34.76,28.28,63.04,63.04,63.04
							c34.76,0,63.04-28.28,63.04-63.04C193.26,31.04,164.98,2.76,130.22,2.76z"/>
					</g>
				</g>
			</g>
		</g>
	</g>
</g>
</svg>
