   <svg viewBox="-936 9 1920 17.3" xmlSpace="preserve">
                <path
                    className="elementor-shape-fill"
                    d="M125.6 24.7h.7v-1.3c-.4.3-.9.6-.7 1.3zM77 23.2c-.2.9 1.8.6 2.1.2 1.2 0 2.8 1.2 3.4 0-1.6.1-3.8-.5-5.5-.2zm-45.1-1.8c-.2 1.6 1.8 1.9 2.9.9-.6-.9-1.9-.2-2.9-.9zm246.8 3.5c.9.1 1.3-.2 1.7-.4-.1-.4-.5-.6-.9-.9-.6.2-.8.6-.8 1.3zm-122.8-3c-.5-.1-1.1-.3-1.9-.2-1.8 1.3 2.3 2.1 1.9.2zM329 24.8c.7-.2 1.2-.1 1.5.4.9-.4-1.6-1.7-1.5-.4zm-95-1.9v.7c.6.1.7-.2.7-.7h-.7zm-1.9-.6h.9v.4c1.4.2-.1-.8 1-.7 0-.6-1.2-.3-1.9-.4.4.4-.1.2 0 .7zm81.1.5v.7c.7-.3 1.3.5 1.7 0-.2-.5-.7-.8-1.7-.7zm69-1.6c-.8.4-1.4 1-2.2 1.3.1.2.3.4.4.7 1.5.1 1.9-.8 1.8-2zm-107.2.2c.7-.1.7.4 1.2 0V21c-.6-.1-1.3-.4-1.2.4zm224.7 1.4c-.4.3-.3 1-.3 1.5 2-.7 3.5-.7 5.6-.3-.3-.5-1.5-.4-1.5-1.1-1.1 1.1-1.8-.4-3.8-.1zm-226.9-2.1c-.2.5.6.3.7.7.6-.1 1-.9.5-1.3-.5 0-1 .1-1.2.6zm80.7.7c.2.3.4.5.5.8.5 0 .7-.2 1-.2-.3-.4-.7-.6-1.5-.6zm-117.5-1c.4.3.9.1 1.4 0-.1-.2-.2-.3-.2-.6-.7-.1-1.3-.1-1.2.6zm125.2.9c-.1.4.1.5.2.8.4-.1.5-.4.5-.8h-.7zm-5.3-1.2c0 .5.6.6.5 1.1 1.2-.3.7.7 1.6.6-.3-.8-.9-1.4-2.1-1.7zm8.2-.8c-.6-.1-.7.2-.7.7-.7 0-.5-.6-1.2-.6.3.5 0 .9-.5 1.3 1.2.7 3 .9 4.6 1.2-.7-.9-2.5-.9-2.2-2.6zm69.6 2.9c.1.3.8.1.8.4.1-.1.2-.2.4-.2V22c-.6 0-.9 0-1.2.2zm-63.5-2.6c-.9 1.4.3 2.6 2.1 1.9 0-.3-.4-.4-.9-.4 0-.7 1.2-.5 1.2-1.3-1.1.1-1.5-.3-2.4-.2zm18 2.1c1.2-.3 1.7-.4 2.9 0 .5-.3.4-1.1 1-1.3-.5-.5-1.2-.6-1.9-.2.6-1.1 2.1-1.3 3.9-1.2-.8-.6.4-.8-.2-1.5-1.3.4-2 0-2.7.7-.8-.1-.3-.7-.2-1.1-.4.1-.4.6-1.2.4.4.5.8 1.2-.2 1.3.7 1.1-.7 1.5.5 2.1-.5-.1-1.5-.4-1.9 0 .5.3.4.4 0 .8zm146.2.8c.4.3 1.1.4 1.9.4.3-1.2-1.4-.6-1.9-.4zm54.7 0c0 .2 2 .4 1.7-.2-.8-.1-.9.3-1.7.2zm-231.2-5.2c-1.2 0-1.2.9-1.7 1.5-.8 0-.8-.7-1.9-.6 0 1.4 1.1.7 2.2.8 1.8.1 4.2.2 5.5.4 0-.3-.4-.4-.3-.7 0-.2.4-.2.7-.2-.2-.5-.7-.9-1.4-1.1-.1 1.4-4 1.8-3.1-.1zm28.7 2.1c.9-.2.6.5 1.4.4-.2-1.1.3-1.1 1-1.1-.2-.5-1-.7-1-1.3-.5.1-.6.4-1.4.3 1.4.6-.4.5 0 1.7zm-19.8-.4c1-.1 1-.7 2.2-.3-.5-.4-1.3-.6-2.4-.6-.2.4.4.4.2.9zm34.3-3.3c-1.1-.1-1.4.5-2.2.7 0 .3.6.2.4.7.7-.1 1.4-.4 1.6-.9.5.3 1.9.3 1.6-.3-.6.1-.9.2-1.5.1 0-.1.2-.2.1-.3zm-92.8-3.6c.2.6-.3.6-1 .5.2.7 2.6-.2 2.9.8-.2.5-1.5 0-1.7.4-1-.6-1.5-.5-2.9-.6 1 1.4 3 1 4.4 1.3.4-.4.6-1 .5-1.8-1.1.2-.7-.9-2.2-.6zM741.9 15c-.3-.8-3-1.2-3.6-.2 1.4-.1 2.5.8 3.6.2zm45.4.2c.3.5 1 .6 1.9.6-.1-.7-.9-.8-1.2-1.3-.5.1-.3.7-.7.7zm53.2 0c.3.8 1.5.1 2.4.2-.2-1.2-1.5-.1-2.4-.2zm-469.9 1.1c-.5.1-1.1-.5-2.1-.6-.2.8 1.5.3 1.7.9.2 0 .2-.4.4-.3zm-27.2.1h.3c-.1-.1-.2-.2-.2-.3 0 .1 0 .2-.1.3zm0 0c-.2 0-.5-.1-.6.1.3 0 .5 0 .6-.1zm4-1.5c-.4.5-1.1.8-1.5 1.3-.9-.1-1.5 0-2.2.2.4.2 1.3.2 1 1 1-.6 1.6-.4 3.1-.3 0-.3-.1-.6.2-.6-.8-.4-.9-.7-.6-1.6zm-15 5.1c2.4 0 6.5-.2 7.7 2.1.8-.5 2.1-.7 3.6-.7.1-.3-.1-.4-.4-.4.1-.5 1.3-.1 1.9-.2.2.1.2.4.2 1.1 1-.2 1.2.3 1.9.4.7-.1 1.4-.3 1.2-1.1 1.9-.1 1.7 1.4 3.6.8-.6-1.1.5-.7.7-1.5.9-.1 1.6 0 2.2.2 0-.5-1-.4-1-.9-4.5 2.1-4.5-2.8-7 .5-2.5-.6-4-.7-6.5.1-.6-.1-.3-.8-.9-.8.3-.7 1.4.2 1.7-.7-.8.2-2.7.1-3.6-.6-.5.1-.6.5-1 .7-1.4-.9-4.5-.7-6.5-.1.8.2 1.8.3 2.2 1.1zm47.7.1c1.8-.8 4 .3 5.3-1.2-.5-.3-1.7 0-1.2-1.1-.8-.1-1-.6-1.9-.2-.2-.1-.4-.3-.4-.7 1-.7 2.7-.4 4.6-.5-.9-.2-.7-.6-.5-1.3-.8.2-1.4.5-1.9.9-1.9-.9-4.3 0-6-.4.5.9 2.5.7 3.4 1.3.1.6-.8.4-.5 1.1h1c-.9.5-1 1.6-1.9 2.1zm-27.7-4.5c-.3.2-1 .2-1 .7-.4-.3-1-.4-1.2-.8-.7-.1-.5.6-1.4.4-.2.5-.1.7-.5 1.3 1.4-.5 2.1.7 3.3.2.9.6.2 1 .5 1.9.9-.2.7-1.3 1-2 1 .5 2.2-.2 2-1.3-1.2 0-1-.1-2 0-.3.2-.1.9-.7.9-1-.2.2-.6 0-1.3zm170.7 9.1h.7v-1.3c-.4.3-.9.6-.7 1.3zm-48.7-1.5c-.2.9 1.8.6 2.1.2 1.1 0 2.8 1.2 3.4 0-1.6.1-3.7-.5-5.5-.2zm201.7 1.7c.9.1 1.3-.2 1.7-.4-.1-.4-.5-.6-.9-.9-.6.2-.8.6-.8 1.3zm-122.7-3c-.5-.1-1.1-.3-1.9-.2-1.8 1.3 2.3 2.1 1.9.2zm173.1 2.9c.7-.2 1.2-.1 1.5.4.9-.4-1.6-1.7-1.5-.4zm-95.1-1.9v.7c.6.1.7-.2.7-.7h-.7zm-1.9-.6h.9v.4c1.4.2-.1-.8 1-.7 0-.6-1.2-.3-1.9-.4.4.4 0 .2 0 .7zm81.2.5v.7c.7-.3 1.3.5 1.7 0-.3-.5-.8-.8-1.7-.7zm69-1.6c-.8.4-1.4 1-2.2 1.3.1.2.3.4.4.7 1.5.1 1.8-.8 1.8-2zm-107.2.2c.7-.1.7.4 1.2 0V21c-.7-.1-1.3-.4-1.2.4zm224.7 1.4c-.3.3-.2 1-.2 1.5 1.9-.7 3.4-.7 5.5-.3-.3-.5-1.5-.4-1.5-1.1-1.1 1.1-1.8-.4-3.8-.1zm-226.9-2.1c-.2.5.6.3.7.7.6-.1 1-.9.5-1.3-.6 0-1.1.1-1.2.6zm80.6.7c.2.3.4.5.5.8.5 0 .7-.2 1-.2-.2-.4-.7-.6-1.5-.6zm-117.5-1c.4.3.9.1 1.4 0-.1-.2-.2-.3-.2-.6-.7-.1-1.3-.1-1.2.6zm125.3.9c-.1.4.1.5.2.8.4-.1.5-.4.5-.8h-.7zm-5.3-1.2c0 .5.6.6.5 1.1 1.2-.3.7.7 1.6.6-.3-.8-1-1.4-2.1-1.7zm8.1-.8c-.6-.1-.7.2-.7.7-.7 0-.5-.6-1.2-.6.3.5 0 .9-.5 1.3 1.2.7 3 .9 4.6 1.2-.6-.9-2.5-.9-2.2-2.6zm82.4 2.8c0 1.4 2.3.4 3.6.6-.1-.2-1.3-.4-.5-.7-.4 0-1.9 1-3.1.1zm-12.9.1c.1.3.8.1.8.4.2-.1.3-.2.5-.2V22c-.5 0-.9 0-1.3.2zm-63.4-2.6c-.9 1.4.3 2.6 2.1 1.9 0-.3-.4-.4-.9-.4 0-.7 1.2-.5 1.2-1.3-1.1.1-1.5-.3-2.4-.2zm18.1 2.1c1.2-.3 1.7-.4 2.9 0 .5-.3.4-1.1 1-1.3-.5-.5-1.2-.6-1.9-.2.6-1.1 2.1-1.3 3.9-1.2-.8-.6.4-.8-.2-1.5-1.3.4-2 0-2.7.7-.8-.1-.3-.7-.2-1.1-.4.1-.4.6-1.2.4.4.5.8 1.2-.2 1.3.7 1.1-.7 1.5.5 2.1-.5-.1-1.5-.4-1.9 0 .5.3.4.4 0 .8zm31-.3c0 .3.4.4.3.7.5 0 .6-.1.9-.2-.2-.4-.4-.7-1.2-.5zm7.8-2.2c-.4.3-1.2.3-1.2.9.7-.2 1.5 0 1.9-.2 1.1.4.4 1.1.2 1.9.8.2 1.7.4 2.4.2-.8-.7-1.5-1.5-.7-2.6-.8-.2-1-.7-1.9-.8-.1-.5 1.6.3 1.2-.5-1.9.5-1.8-.7-3.1-.6.6.5-.4.1-.3.7 1.1-.1.9.8 1.5 1zM807 20.3c0 .6.8.7.9 1.3.6-.5 1.1.2 1.5-.2-.6-1.1 1.3-1 1.5-2-1.4-.7-1.9.9-3.6.5.1.2 0 .3-.3.4zm124.9 2.2c.4.3 1.1.4 1.9.4.2-1.2-1.4-.6-1.9-.4zm-135.1-3.2c.2.3.6.4.7.8.6-.1 1.5-.3 1.1.6 1.8-.5 3.5-1 4-2.4.6.7 3.6 1.3 4.3.4 0-.6-1.1-.3-1-.9-.8-.1-.1.9-1 .7-.8.2-.3-.6-.7-.7-1.7.4-4.8.9-5.6 1.8-.5-.1-1-.3-1.8-.3zm43 1c0 .7 1 .7 1.7.8.4-.6.6-1.2.3-1.5-.8 0-.2.3-.5.9-.8.1-.7-.4-1.5-.2zm137.5 1.9c.2.7 2.1.3 2.7.2-.5-.4-1.2-.6-2.2-.6-.1.1-.2.3-.5.4zm-221.9-4.9c-1.2 0-1.2.9-1.7 1.5-.8 0-.8-.7-1.9-.6 0 1.4 1.1.7 2.2.8 1.8.1 4.2.2 5.5.4 0-.3-.4-.4-.3-.7 0-.2.4-.2.7-.2-.2-.5-.7-.9-1.4-1.1-.2 1.4-4.1 1.8-3.1-.1zm28.6 2.1c.9-.2.6.5 1.4.4-.2-1.1.3-1.1 1-1.1-.2-.5-1-.7-1-1.3-.5.1-.6.4-1.4.3 1.4.6-.3.5 0 1.7zm-19.8-.4c1-.1 1-.7 2.2-.3-.5-.4-1.3-.6-2.4-.6-.1.4.5.4.2.9zm52.5.3c-.5-.2-1.1 0-1.9-.4 0 .3.4.4.3.7.9 0 .6-.2 1.4 0 0-.2.1-.3.2-.3zm66.7.8c.2 0 .2-.1.2-.2v-.5c-.4.4-1.1.1-1.1-.4-1-.2-1.1.3-1.7.5.3.8 2.2.3 2.6.6zM837.7 19c.3.5 1.2.2 1.9 0-.4-.2-.3-.8-.7-1.1-.8-.1-.3 1.1-1.2 1.1zm129.2.6c-.3.2-1 .2-1 .7 1 0 1.3-.3 1.9.2.8-.4-.9-.6-.9-.9zm-8.3-.1c.1 0 .1-.1.2-.1-.3.1-.5 0-.8 0 .2 0 .4.1.6.1zm2.2 0c-.6-1-1.1-.2-2-.1.7-.1 1.5.3 2 .1zm-2.8-.1c-2.5-.3-5.7-1.6-7.8-.4 2.1 1 5.1.7 7.8.4zm-129-1.3c.4-1-1.6-1.4-1.4-.2.7-.1.7.3 1.4.2zm-18.2-1.3c.1-.9-1.1-.7-1-1.5-.7.8-1.1-.1-2.4 0 .3.5.6.9 1 1.3 1-.2 1.4.2 2.4.2zm-10.9-.9c-.8.2-.9.4-1.9.2-.1.6 2.3.5 1.9-.2zM968 17.4c-1-.2-1.7 0-2.6-.6-.3.3-1.3.2-1.2.9 1.4-.1 3.5 1.2 3.8-.3zm3.9.6c.2-1.3-3-1.2-2.9 0 .9.4 1.7-.1 2.9 0zm1.4-.5c2 1.5 6.1.2 8.7.8.5-1-1.5-1.3-1.7-.6-2.6-.8-4.3-.4-7-.2zm-29-1.3c-1.7.4-5.4-.6-7 .5 1.4 1.2 4.3.4 6.7.6.1-.7.7-.5.3-1.1zm35.3.1c-.1-.2-.3-.3-.2-.6-.9.1-2.1-.6-2.4.2-.2.5.8.2.7.7.7-.5 1.3-.1 1.9-.3zM844.8 15c-.1 0-.1 0 0 0-.1 0 0 0 0 0-.1 0-.1 0 0 0zm-.1 0c-.1-.2-.1-.5-.6-.4-.1.4.2.3.6.4zm-76.6 1.3c-.5.1-1.1-.5-2.1-.6-.2.8 1.5.3 1.7.9.2 0 .1-.4.4-.3zm159.1 3.9c-.5.5-.5 1 0 1.5 3.6-.7 7.7.2 11.1-.6.2.2.4.4.5.6 7.1 0 15.5.7 23.1.3 3.4 1 10.5.4 14.4.7-1.8-1.9-7.1-.6-9.4-1-.7 0-1.2.2-1.7.5-2.4-.6-4.3-.6-6.2-1.4-4.9.7-8.9-1.4-12.5 0-.8 0-.1-1.1-1.2-.8-.3-.5.5-1.1 0-1.1-1 .4-1.6.4-2.1-.4-1.1 0-1.6.5-2.9.3-.3.5-.2.6.2 1.1-.7.1-1.4.3-1.9.7-.5-.3-.7-.8-1.6-.8.5-.7 1.3-.3 2.6-.3-.9-.8.9-.6.5-1.5-2.1.6-3.4.2-5.8-.1-.2 1.2-1.7 1-2.7 1.1-.3.6 0 .4 0 1.1-1.5.3-2-.2-4.4.1zm-186.4-3.8h.3c-.1-.1-.2-.2-.2-.3.1.1 0 .2-.1.3zm0 0c-.2 0-.5-.1-.6.1.3 0 .5 0 .6-.1zm4.1-1.5c-.4.5-1.1.8-1.5 1.3-.9-.1-1.5 0-2.2.2.4.2 1.3.2 1 1 1-.6 1.6-.4 3.1-.3 0-.3-.1-.6.2-.6-.8-.4-.9-.7-.6-1.6zm184.8-2.1c-.3-.7-.7.1-1.2.2.7 1.8-2 .4-2.7.9 0 .8.9 1 1.6 1.3.7-.6 1.4-.7 2.4-.7-.4-.2-1.6-1.8-.1-1.7zM729.8 20c2.4 0 6.5-.2 7.7 2.1.8-.5 2.1-.7 3.6-.7.2-.3-.1-.4-.4-.4.1-.5 1.3-.1 1.9-.2.2.1.2.4.2 1.1 1-.2 1.2.3 1.9.4.7-.1 1.4-.3 1.2-1.1 1.9-.1 1.7 1.4 3.6.8-.6-1.1.5-.7.7-1.5.9-.1 1.6 0 2.2.2 0-.5-1-.4-1-.9-4.5 2.1-4.5-2.8-7 .5-2.5-.6-4-.7-6.5.1-.6-.1-.3-.8-.9-.8.3-.7 1.4.2 1.7-.7-.8.2-2.7.1-3.6-.6-.5.1-.6.5-1 .7-1.4-.9-4.5-.7-6.5-.1.9.2 1.9.3 2.2 1.1zm47.8.1c1.8-.8 4 .3 5.3-1.2-.5-.3-1.7 0-1.2-1.1-.8-.1-1-.6-1.9-.2-.2-.1-.4-.3-.4-.7 1-.7 2.7-.4 4.6-.5-.9-.2-.7-.6-.5-1.3-.8.2-1.4.5-1.9.9-1.9-.9-4.3 0-6-.4.5.9 2.5.7 3.4 1.3.1.6-.8.4-.5 1.1h1c-1 .5-1.1 1.6-1.9 2.1zm142.7.3c1-.4 1.4 0 1.2.9 2.3-.4 2.8.9 4.3-.1-.4-1.6.9-1.9 1.5-2.6-1.2-.5-3.6.2-5.3-.3-.2.6-.6.9-1.5.9.2.6-.2.7-.2 1.2zm-91.3-.5c-.1.3-.4.5-.7.6.6.4 2.1.1 1.9 1 .4-.5.2-.6 1.2-.4-1.5-.9 1.4-1.8-.2-1.9.2-.3 1.4 0 2-.1.3.2.3.7.7.9-.2.4-.9.4-1.2.6 0 .3.7.2.5.7 1.1.1 2 .1 2.6-.3.5.1.6.4.5.8h.9c0-.3.1-.4.3-.4-1-.9.2-1.6-.9-2.1.4-.1.5-.6 1-.7-.2-.4-.9-.4-1.2-.6.6-1.7 1.9-.6 3.4-.9-1.3-1.7-3.6-.4-5.6-.1-.3-.1-.4-.4-.5-.7-.5.3-1.5.3-.9-.4-.3.2-.7.3-1.2.2-.1-.4.2-.4.5-.4-.2-.2-.6-.2-.5-.6-1.5 0-1.6 1.1-2.5 1.6.8.5 1.5.9 2.4.8-.1 1-2.5.1-2 1.6h.9v.4c-.6.4-1.8-.3-2.1-.8-.4.1-.7.2-.7.7.8-.2 1 .2 1.4.5zm-79.2-4.3c-.3.2-1 .2-1 .7-.4-.3-1-.4-1.2-.8-.7-.1-.5.6-1.4.4-.1.5-.1.7-.5 1.3 1.4-.5 2.1.7 3.3.2.9.6.2 1 .5 1.9.9-.2.7-1.3 1-2 1 .5 2.2-.2 2-1.3-1.2 0-1-.1-2 0-.3.2-.1.9-.7.9-1-.2.2-.6 0-1.3zm-846 7.8v1.3h.7c.1-.7-.4-1-.7-1.3zm43.8 0c.6 1.2 2.2 0 3.4 0 .2.4 2.3.7 2.1-.2-1.8-.3-4 .3-5.5.2zm47.6-1.1c1.1 1.1 3.1.8 2.9-.9-1 .7-2.3 0-2.9.9zm-245.7 2.2c.4.3.8.5 1.7.4.1-.7-.1-1.2-.7-1.3-.4.3-.8.5-1 .9zm124.6-2.6c-.4 1.9 3.7 1.1 1.9-.2-.8 0-1.4.1-1.9.2zm-174.7 3.3c.3-.6.8-.6 1.5-.4.2-1.3-2.3 0-1.5.4zm96.6-2.3h-.7c-.1.5 0 .8.7.7v-.7zm1-.2v-.4h.9c.1-.5-.4-.3 0-.7-.7.1-1.9-.2-1.9.4 1.1-.1-.3.8 1 .7zm-81.9.8c.4.6 1-.2 1.7 0v-.7c-1-.1-1.5.2-1.7.7zm-67.2-2.3c-.2 1.2.2 2.1 1.7 2 .1-.3.3-.4.4-.7-.8-.3-1.4-.9-2.1-1.3zm105.9-.2v.4c.5.4.5-.1 1.2 0 .1-.8-.6-.5-1.2-.4zM-475 24.1c2.1-.4 3.7-.4 5.6.3-.1-.6.1-1.2-.3-1.5-2-.4-2.7 1.1-3.8 0 0 .7-1.2.5-1.5 1.2zm231-4.1c-.5.4-.2 1.2.5 1.3.1-.3.9-.1.7-.7-.2-.4-.7-.5-1.2-.6zm-81 2c.3.1.5.3 1 .2.1-.3.3-.5.5-.8-.7 0-1.2.2-1.5.6zm117.6-1.6c.5.1 1 .4 1.4 0 .1-.6-.5-.6-1.2-.6 0 .3-.1.4-.2.6zm-124.5.9c-.1.5.1.7.5.8.1-.3.3-.4.2-.8h-.7zm3.9.5c.8.1.4-.9 1.6-.6 0-.5.6-.6.5-1.1-1.2.3-1.8.9-2.1 1.7zm-8.3.1c1.7-.3 3.4-.6 4.6-1.2-.5-.4-.8-.8-.5-1.3-.7 0-.5.6-1.2.6.1-.5-.1-.8-.7-.7.4 1.7-1.5 1.7-2.2 2.6zm-83.8.9c1.3-.2 3.6.8 3.6-.6-1.2.8-2.6-.2-3.1-.2.9.3-.4.6-.5.8zm15.3-.8v.4c.2 0 .2.2.4.2 0-.3.7-.1.8-.4-.4-.2-.7-.2-1.2-.2zm62.3-2.2c-.1.8 1.1.6 1.2 1.3-.5 0-.9.1-.9.4 1.8.7 3-.6 2.1-1.9-1-.1-1.4.3-2.4.2zm-22-.6c1.8-.2 3.3.1 3.9 1.2-.7-.4-1.4-.3-1.9.2.6.3.5 1 1 1.3 1.2-.4 1.7-.3 2.9 0-.2-.5-.3-.6.2-.9-.4-.4-1.4-.1-1.9 0 1.2-.7-.1-1.1.5-2.1-1-.1-.5-.8-.2-1.3-.7.1-.8-.3-1.2-.4.2.4.6 1-.2 1.1-.7-.7-1.4-.3-2.6-.7-.7.8.6.9-.5 1.6zm-25.9 2.6c.3.1.4.3.9.2 0-.3.3-.4.3-.7-.8-.1-1 .2-1.2.5zm-9.9.1c.7.3 1.6 0 2.4-.2-.2-.8-.8-1.5.2-1.9.4.3 1.2 0 1.9.2 0-.6-.8-.6-1.2-.9.6-.2.4-1 1.5-.9.1-.6-.9-.2-.3-.7-1.3-.1-1.2 1.1-3.1.6-.4.7 1.2 0 1.2.5-.9.1-1.1.6-1.9.8.8 1.1.1 1.8-.7 2.5zm16.7-2.5c.2 1 2.1.9 1.5 2 .4.4.9-.2 1.5.2.1-.6.9-.7.9-1.3-.1-.1-.3-.2-.2-.4-1.7.3-2.2-1.3-3.7-.5zm-122.7 3.5c.8 0 1.5-.1 1.9-.4-.5-.2-2.1-.8-1.9.4zm126.9-4.1c.6 1 3.7.3 4.3-.4.5 1.5 2.3 1.9 4 2.4-.4-1 .5-.8 1.1-.6.1-.4.4-.5.7-.8-.8-.1-1.4.1-1.9.2-.8-1-3.9-1.5-5.6-1.8-.4.1.1.9-.7.7-.9.2-.2-.8-1-.7.2.6-1 .4-.9 1zm-34.9.8c-.2.3-.1 1 .3 1.5.7-.2 1.7-.1 1.7-.8-.8-.1-.7.3-1.5.2-.3-.6.3-.9-.5-.9zm86.4-2.2c.9 1.8-3 1.4-3.1 0-.7.2-1.2.5-1.4 1.1.3 0 .6 0 .7.2 0 .3-.3.4-.3.7 1.2-.2 3.7-.3 5.5-.4 1.1-.1 2.2.5 2.2-.8-1.1-.1-1.1.6-1.9.6-.5-.5-.4-1.5-1.7-1.4zm-30.1 2.4c.8.1.5-.6 1.4-.4.3-1.2-1.4-1.1 0-1.7-.7.2-.9-.2-1.4-.3-.1.6-.8.8-1 1.3.8 0 1.3 0 1 1.1zm21.4-1.7c-1.1 0-1.9.2-2.4.6 1.2-.4 1.2.1 2.2.3-.2-.5.4-.5.2-.9zm-52.5 1.4c.7-.2.5 0 1.4 0 0-.3.3-.4.3-.7-.7.3-1.4.2-1.9.4.2.1.3.2.2.3zm-23.1-.5c.6.2 1.6.6 1.9 0-.9.1-.3-1.1-1.2-1.1-.4.2-.2.9-.7 1.1zm12-1.1c.3-1.2-1.8-.8-1.4.2.7.1.7-.3 1.4-.2zm19.3-1.3c.4-.4.7-.8 1-1.3-1.3-.1-1.7.7-2.4 0 .1.8-1.1.7-1 1.5 1 0 1.3-.4 2.4-.2zm10.3-.5c-1 .2-1.1 0-1.9-.2-.3.7 2.1.8 1.9.2zm90.2-2.7c.3-1 2.7-.1 2.9-.8-.7.1-1.2.1-1-.5-1.3-.3-.9.8-2.1.6-.1.8.1 1.4.5 1.8 1.5-.3 3.4.1 4.4-1.3-1.4.1-1.9.1-2.9.6-.2-.4-1.5.1-1.8-.4zM-711.9 15c1.1.6 2.2-.4 3.6-.2-.7-1-3.3-.6-3.6.2zm294.7 0c.3 0 .7 0 .6-.4-.5-.1-.6.1-.6.4zm0 0c-.1 0-.1 0 0 0-.1 0-.1 0 0 0zm78.7.6c-1 .1-1.6.7-2.1.6.2 0 .2.3.4.4.2-.6 1.9 0 1.7-1zm25.2.8c.1.1.3.1.6.1-.1-.2-.4-.2-.6-.1zm-.4 0h.3c-.1-.1-.1-.2-.1-.3 0 .1-.1.2-.2.3zm-3.6-1.7c.2 1 .1 1.3-.7 1.7.2.1.2.3.2.6 1.5-.1 2-.3 3.1.3-.3-.8.6-.7 1-1-.7-.1-1.4-.3-2.2-.2-.4-.5-1-.8-1.4-1.4zm-7.6 5.9c.6-.2 1.3-.3 2.2-.2.1.8 1.3.5.7 1.5 1.9.6 1.7-.9 3.6-.8-.2.8.5 1 1.2 1.1.7-.1.9-.6 1.9-.4 0-.6 0-1 .2-1.1.6.1 1.7-.2 1.9.2-.2.1-.5.1-.4.4 1.6 0 2.8.1 3.6.6 1.2-2.2 5.3-2 7.7-2.1.2-.7 1.3-.8 2.1-1-2-.5-5.1-.8-6.5.1-.4-.1-.5-.6-1-.7-.9.7-2.8.8-3.6.6.3.9 1.4 0 1.7.7-.6.1-.3.8-.9.8-2.4-.7-3.9-.7-6.5-.1-2.5-3.3-2.5 1.6-7-.5 0 .6-1 .4-.9.9zm-27.2-3.6c0 .3-.1.6-.4.7-.9-.4-1.1.1-1.9.2.4 1-.7.8-1.2 1.1 1.3 1.5 3.5.4 5.3 1.2-.8-.6-.9-1.7-1.8-2.2h1c.3-.7-.6-.5-.5-1.1.9-.6 2.9-.3 3.4-1.3-1.7.4-4-.5-6 .4-.5-.4-1.1-.8-1.9-.9.1.7.4 1.1-.5 1.3 1.9.1 3.6-.1 4.5.6zm29.6-.1c-.6 0-.4-.7-.7-.9-1-.2-.8 0-2 0-.3 1.1 1 1.8 2 1.3.3.7.1 1.8 1 2 .3-.9-.3-1.4.5-1.9 1.2.5 1.9-.7 3.3-.2-.4-.6-.3-.8-.5-1.3-.8.2-.6-.5-1.4-.4-.2.4-.8.5-1.2.8.1-.5-.6-.4-.9-.7-.2.7 1 1.1-.1 1.3zm-210.9 6.5v1.3h.7c.2-.7-.3-1-.7-1.3zm43.9 0c.6 1.2 2.2 0 3.4 0 .2.4 2.3.7 2.1-.2-1.8-.3-4 .3-5.5.2zm-198.1 1.1c.4.3.8.5 1.7.4.1-.7-.1-1.2-.7-1.3-.4.3-.8.5-1 .9zm-50.1.7c.3-.6.8-.6 1.5-.4.2-1.3-2.3 0-1.5.4zm96.6-2.3h-.7c-.1.5 0 .8.7.7v-.7zm1-.2v-.4h.9c.1-.5-.4-.3 0-.7-.7.1-1.9-.2-1.9.4 1.1-.1-.4.8 1 .7zm-81.9.8c.4.6 1-.2 1.7 0v-.7c-1-.1-1.5.2-1.7.7zm-67.2-2.3c-.2 1.2.2 2.1 1.7 2 .1-.3.3-.4.4-.7-.8-.3-1.4-.9-2.1-1.3zm105.9-.2v.4c.5.4.5-.1 1.2 0 .1-.8-.6-.5-1.2-.4zm-228.8 3.1c2.1-.4 3.7-.4 5.6.3-.1-.6.1-1.2-.3-1.5-2-.4-2.7 1.1-3.8 0-.1.7-1.2.5-1.5 1.2zm231-4.1c-.5.4-.2 1.2.5 1.3.1-.3.9-.1.7-.7-.2-.4-.7-.5-1.2-.6zm-81 2c.3.1.5.3 1 .2.1-.3.3-.5.5-.8-.8 0-1.2.2-1.5.6zm117.6-1.6c.5.1 1 .4 1.4 0 .1-.6-.5-.6-1.2-.6 0 .3-.1.4-.2.6zm-124.5.9c-.1.4 0 .7.5.8.1-.3.3-.4.2-.8h-.7zm3.9.5c.8.1.4-.9 1.6-.6 0-.5.6-.6.5-1.1-1.2.3-1.8.9-2.1 1.7zm-8.3.1c1.7-.3 3.4-.6 4.6-1.2-.5-.4-.8-.8-.5-1.3-.7 0-.5.6-1.2.6.1-.5-.1-.8-.7-.7.3 1.7-1.5 1.7-2.2 2.6zm-83.8.9c1.3-.2 3.6.8 3.6-.6-1.2.8-2.6-.2-3.1-.2.8.3-.4.6-.5.8zm15.2-.8v.4c.2 0 .2.2.4.2 0-.3.7-.1.8-.4-.3-.2-.6-.2-1.2-.2zm429.9-5.2c1.6.3 2.9-.8 3.4.9-.3.2-1 .3-1.2.6.5.1.6.5 1 .7-1 .5.2 1.2-.9 2.1.2.1.4.2.3.4h.9c0-.5.1-.8.5-.8.5.3 1.5.4 2.6.3-.2-.5.5-.3.5-.7-.3-.3-1-.3-1.2-.6.4-.2.4-.7.7-.9.6.1 1.8-.3 2 .1-1.6.1 1.3 1.1-.2 1.9 1-.1.8-.1 1.2.4-.2-1 1.3-.7 1.9-1-.3-.1-.6-.3-.7-.6.4-.2.6-.5 1.4-.4.1-.4-.3-.5-.7-.7-.2.5-1.4 1.2-2.1.8v-.4h.9c.5-1.4-1.9-.6-2-1.6.9.1 1.6-.3 2.4-.8-.9-.4-1-1.6-2.5-1.6.1.4-.3.4-.5.6.3.1.6.1.5.4-.5 0-.9-.1-1.2-.2.6.7-.4.7-.9.4-.1.3-.2.6-.5.7-.6 0-1.3-.2-1.9-.4v-.1c-.9-.1-1.1-.8-2.2-.7-.3.4-.1.6.1.8-.6.1-1.3 0-1.6.4zm-367.6 3c-.1.8 1.1.6 1.2 1.3-.5 0-.9.1-.9.4 1.8.7 3-.6 2.1-1.9-.9-.1-1.3.3-2.4.2zm-21.9-.6c1.8-.2 3.3.1 3.9 1.2-.7-.4-1.4-.3-1.9.2.6.3.5 1 1 1.3 1.2-.4 1.7-.3 2.9 0-.2-.5-.3-.6.2-.9-.4-.4-1.4-.1-1.9 0 1.2-.7-.1-1.1.5-2.1-1-.1-.5-.8-.2-1.3-.7.1-.8-.3-1.2-.4.2.4.6 1-.2 1.1-.7-.7-1.4-.3-2.6-.7-.7.8.6.9-.5 1.6zm-25.9 2.6c.3.1.4.3.9.2 0-.3.3-.4.3-.7-.8-.1-1 .2-1.2.5zm-10 .1c.7.3 1.6 0 2.4-.2-.2-.8-.8-1.5.2-1.9.4.3 1.2 0 1.9.2 0-.6-.8-.6-1.2-.9.6-.2.4-1 1.5-.9.1-.6-.9-.2-.3-.7-1.3-.1-1.2 1.1-3.1.6-.4.7 1.2 0 1.2.5-.9.1-1.1.6-1.9.8.9 1.1.2 1.8-.7 2.5zm16.8-2.5c.2 1 2.1.9 1.5 2 .4.4.9-.2 1.5.2.1-.6.9-.7.9-1.3-.1-.1-.3-.2-.2-.4-1.7.3-2.2-1.3-3.7-.5zm4.2-.6c.6 1 3.7.3 4.3-.4.5 1.5 2.3 1.9 4 2.4-.4-1 .5-.8 1.1-.6.1-.4.4-.5.7-.8-.8-.1-1.4.1-1.9.2-.8-1-3.9-1.5-5.6-1.8-.4.1.1.9-.7.7-.9.2-.2-.8-1-.7.1.6-1 .4-.9 1zm-35 .8c-.2.3-.1 1 .3 1.5.7-.2 1.7-.1 1.7-.8-.8-.1-.7.3-1.5.2-.2-.6.4-.9-.5-.9zm86.5-2.2c.9 1.8-3 1.4-3.1 0-.7.2-1.2.5-1.4 1.1.3 0 .6 0 .7.2 0 .3-.3.4-.3.7 1.2-.2 3.7-.3 5.5-.4 1.1-.1 2.2.5 2.2-.8-1.1-.1-1.1.6-1.9.6-.5-.5-.4-1.5-1.7-1.4zm-30.1 2.4c.8.1.5-.6 1.4-.4.3-1.2-1.4-1.1 0-1.7-.7.2-.9-.2-1.4-.3-.1.6-.8.8-1 1.3.7 0 1.2 0 1 1.1zm21.4-1.7c-1.1 0-1.9.2-2.4.6 1.2-.4 1.2.1 2.2.3-.2-.5.3-.5.2-.9zm-52.5 1.4c.7-.2.5 0 1.4 0 0-.3.3-.4.3-.7-.7.3-1.4.2-1.9.4.2.1.3.2.2.3zm-64.3 0c-.5-.1-.7-.7-1.7-.5 0 .5-.7.8-1.1.4v.5c0 .1 0 .2.2.2.4-.3 2.4.2 2.6-.6zm41.2-.5c.6.2 1.6.6 1.9 0-.9.1-.3-1.1-1.2-1.1-.4.2-.3.9-.7 1.1zm12-1.1c.3-1.2-1.8-.8-1.4.2.7.1.7-.3 1.4-.2zm19.3-1.3c.4-.4.7-.8 1-1.3-1.2-.1-1.7.7-2.4 0 .1.8-1.1.7-1 1.5 1 0 1.3-.4 2.4-.2zm10.3-.5c-1 .2-1.1 0-1.9-.2-.4.7 2.1.8 1.9.2zm90.2-2.7c.3-1 2.7-.1 2.9-.8-.7.1-1.2.1-1-.5-1.3-.3-.9.8-2.1.6-.1.8.1 1.4.5 1.8 1.5-.3 3.4.1 4.4-1.3-1.4.1-1.9.1-2.9.6-.2-.4-1.5.1-1.8-.4zM-854.4 15zm.1 0c.3 0 .7 0 .6-.4-.6-.1-.6.1-.6.4zm78.7.6c-1 .1-1.6.7-2.1.6.2 0 .2.3.4.4.2-.6 1.8 0 1.7-1zm21.2-.9c.2 1 .1 1.3-.7 1.7.2.1.2.3.2.6 1.5-.1 2-.3 3.1.3-.3-.8.6-.7 1-1-.7-.1-1.4-.3-2.2-.2-.4-.5-1.1-.8-1.4-1.4zm3.6 1.7h.3c-.1-.1-.1-.2-.1-.3 0 .1-.1.2-.2.3zm.3 0c.1.1.3.1.6.1 0-.2-.3-.2-.6-.1zM-936 13.9v.5c.2-.2.6-.2.6-.5-.1-.1-.4 0-.6 0zm174 6.6c.6-.2 1.3-.3 2.2-.2.1.8 1.3.5.7 1.5 1.9.6 1.7-.9 3.6-.8-.2.8.5 1 1.2 1.1.7-.1.9-.6 1.9-.4 0-.6 0-1 .2-1.1.6.1 1.7-.2 1.9.2-.2.1-.5.1-.4.4 1.6 0 2.8.1 3.6.7 1.2-2.2 5.3-2 7.7-2.1.2-.7 1.3-.8 2.1-1-2-.5-5.1-.8-6.5.1-.4-.1-.5-.6-1-.7-.9.7-2.8.8-3.6.6.3.9 1.4 0 1.7.7-.6.1-.3.8-.9.8-2.4-.7-3.9-.7-6.5-.1-2.5-3.3-2.5 1.6-7-.5 0 .6-1 .4-.9.8zm-27.2-3.5c0 .3-.1.6-.4.7-.9-.4-1.1.1-1.9.2.4 1-.7.8-1.2 1.1 1.3 1.5 3.5.4 5.3 1.2-.8-.6-.9-1.7-1.8-2.2h1c.3-.7-.6-.5-.5-1.1.9-.6 2.9-.3 3.4-1.3-1.7.4-4-.5-6 .4-.5-.4-1.1-.8-1.9-.9.1.7.4 1.1-.5 1.3 1.9.1 3.6-.1 4.5.6zM-936 18.5v1.7c.2.3.7.4.5.9 1.5 1.1 2-.2 4.4.2-.3-1 .2-1.3 1.1-1 0-.4-.4-.5-.2-1.1-.9 0-1.3-.3-1.5-.9-1.4.4-3 .1-4.3.2zm86.6-1.6c1.6.3 2.9-.8 3.4.9-.3.2-1 .3-1.2.6.5.1.6.5 1 .7-1 .5.2 1.2-.9 2.1.2.1.4.2.3.4h.9c0-.5.1-.8.5-.8.5.3 1.5.4 2.6.3-.2-.5.5-.3.5-.7-.3-.3-1-.3-1.2-.6.4-.2.4-.7.7-.9.6.1 1.8-.3 2 .1-1.6.1 1.3 1.1-.2 1.9 1-.1.8-.1 1.2.4-.2-1 1.3-.7 1.9-1-.3-.1-.6-.3-.7-.6.4-.2.6-.5 1.4-.4.1-.4-.3-.5-.7-.7-.2.5-1.4 1.2-2.1.8V19h.9c.5-1.4-1.9-.6-2-1.6.9.1 1.6-.3 2.4-.8-.9-.4-1-1.6-2.5-1.6.1.4-.3.4-.5.6.3.1.6.1.5.4-.5 0-.9-.1-1.2-.2.6.7-.4.7-.9.4-.1.3-.2.6-.5.7-2-.3-4.2-1.7-5.6 0zm90.3-.9c.9-.1 1.6-.1 1.9-.6-.5-.1-.2-.7-.7-.8-.3.5-1.2.6-1.2 1.3-.2-.1-.3-.1-.4-.2-.2.7 1 1.1 0 1.3-.6 0-.4-.7-.7-.9-1-.2-.8 0-2 0-.3 1.1 1 1.8 2 1.3.3.7.1 1.8 1 2 .3-.9-.3-1.4.5-1.9 1.2.5 1.9-.7 3.3-.2-.4-.6-.3-.8-.5-1.3-.8.2-.6-.5-1.4-.4-.2.4-.8.5-1.2.8 0-.4-.3-.5-.6-.4zM984 15.1V9.3H-936v4c2-.1 4.1.7 5.9-.1.2.2.3.5.2.9-1.7 0-3.5-.3-3.5 1.7.3 0 .8-.1.9.2-.2.9-2 .9-3.5.5v1c1.4-.1 2.6-.2 4.1.1.9-.8 2.7-1.9 4.3-1.3-.3.7-1.9.4-1.9 1.3 2.4-.7 6 .6 9.4-.1-.6 0 .9-1.4.9-1.4.8-.2 2.4-.3 2.4 1.1-.9 0-1.8.1-2.4.4 3-.1 7.3.9 10.3-.1.2 0 .4 0 .6.1.3.4 1.1.4 1.6.7-3.3.5-8.9 0-12 .1-.3.6-.9.9-1.6 1.3-.2-.7.6-.5.5-1.1-1.3-.6-2 .1-3.9-.3-.5.1 0 .8-.5.9-.7-.2-1.6-1.2-2.4-.7.6 0 0 .8-.2.9-.9-.1-1.2.2-1.7.4 0-.6-.5-.8-.3-1.5h-1.2c.3.9 1 1.4 1.5 2.2-.2.2-.8.2-1.4.2.3 1.2 1.9 0 2.6.4.7 1.1 2.9 1 4.4.5 4.7 1.1 10.2.1 13.7.4-.2-.5-1.1-.5-1-1.3.7-.4 1.4 0 2 .2.4-.5.2-1.4 1.1-1.5.1.7 1.8.3 2.4.7.1.4 0 .6-.4.7-.9-.7-2.2 0-3.4.2-.3.4.2.7-.5 1.1 3.7.7 7.2 0 11.3.6.3.6-.1.7-.4.9.6-.2 1.3.6 1.7 0-.7 0-.8-.3-.8-.8 1-1 2-.7 3.6-.4.2-.7 1.3-.8 1.4-1.5-.7-.1-.3.7-.9.6-.9-.7-2.3-1.1-3.6-.3 0-.9-2-.1-1.9-1.1 1.3-.1 3.1.2 2.9-1-.8-.2-1.4.2-2.2-.3 0-.3-.1-.7.2-.7 1.8.3 3.2-.1 4.6-.6 1.8.9 6.1-.2 7.2 1.2-1.1.3-3 .1-4.1.4v.9c.3.5.8-.2.9.2-.3.5-1.7.3-1.6 1.1.7-.1.5.4.8.7 4.6-.1 10.7-.1 14.6-.6-.3-.8-.2-1.4-1-1.3.5-.8 1.4-1.9.2-2.4 2.2-.1 3-.6 5.3-.3-.4.8-1.5 1-2.4 1.3.5.8-.4.9 0 1.3.1-.6 1.6-.3 2.1-.6.3.1.1.7.5.7 0-.6.7-.5 1-.8.1.1.5 1 0 1.1-1.7-.8-2.2.7-3.8.2.7 1.9 4.1-.2 6.3.5.4-.3-.2-1 0-1.7.4.1 1.2-.2 1.2.2-.6.8-.4 1.6.3 2.4-.6 0-.8.3-1 .6 1.4-.2 1.7 0 2.9.2.8-4 8.7-.7 11.1-1.6-1.2-.1.2-.3.4-.4.2-.5-.6-.3-.1-.7.3 0 .6 0 .7-.2-.4-.1-.9-.1-.7-.7 1.1-.1 1.2-.5 2.4-.2-.2-.9.7-1 .4-2-.7-.1-1-.6-1.7-.7-.5.3-.1.7 0 1.1-1.2-.2-.4.8-1.2.8.2-1.3-1.6.2-1.9-.5-.4-1.1 1.5-.5 1.9-1.1-.6 0 .3-.3 0-.7-.6-.3-1.3.1-1.7-.5 0 .1-.2.2-.5.3-.9-.1-.9-.1-1.6.2.2-.3.8-.5 0-.7l-2.4.6c0 .4.2.8.7.9-.1-.4 0-.7.4-.7 2-.1.9 1.1 1 1.8-1.4-.2-2.9.8-3.6-.1.5-.3-1.7-2.6 1.2-2.6-1.7-1.8 1.8-1.8 3.6-2.3 0 .9.8 1.6 1.7 1.3.2.6.5 1.1 1.2 1.3.3-.3.9-.5.9-1.1-1.1.2-1.6-1.6-.3-1.5.2.7.7 1 1 1.5 4.3.1 8.6 1.1 12.1-.1-.4.6.7.1.7.5-.6.3-1 .7-1 1.5.4.1 1-.5 1.2 0 .4.6-1.1 0-.7.7.1.1.3.2.2.4 1.5-.2 2.8-.3 4.1.1-.2-1.1 1.5-.8 1.9-1.5.5.4.8 1.3 1.9.7-1.3.8.9 1.3.3 1.9-.6 0-1.6-.5-1.9.2.9-.1 1.5.1 1.7.5.1.6-1 .3-.9.9.4.5 1.2-.4 2.1-.2v.7c.9.3 1.4-.2 2.2-.4-.7-.3-.9-1.2-.6-1.8.1 0 .2.1.3.3 1.6.1 2.1-.7 3.8-.4-.1-.7.6-1.3 1.9-.9-.2-1-2.2-.2-1.5-1.1-.9.6-1.4 0-1.9-.7 3.4-1.2 8.2-.5 12.5 0-.1.1-.3 0-.3.2.5-.1.8-.2 1.2-.1.8.1 1.8.3 2.5.3-.3-.5-.2-.9.5-1.1 0 1 1.4.9 2.2 1.3.2-.4.4-.8 1.2-.8 0 1.5-.5 1.7-.7 3.3 1.1.5 1.8.7 3.1.3.6.3-.4.6.5.6.3-.1.7 0 .7-.2-.6-.1.4-.3.3-.6-1.1-.6-2.5-.5-3.4-.9.5-.9 2.3-1.5 3.6-1.2.1-4 6-.6 8.4-2.5 1.7.9 7.1.6 9.8.3.1.3.5.4.5.9l-2.1.6c-.2 1.2 1.8.7 1.5 2-1.6-.1-2.6.2-4.1.2 1.5 1.2 2.6 2.7 4.2 3.8-.3-.8 0-1-.3-1.7 0-.3 2-.1 1.2-.4-.7-.1-1.9.2-2.2-.2V19c1.1-.5 2.2-.3 3.1.2.5-.5.8-1 .7-1.9 1.5-.4 2.6-.9 2.9-2.1.1-.6-.9-.2-.7-.8.8-.3 1.8-.5 2.6.2-.2.2-.2.4-.2.6-.1 0-.1-.1-.4 0 .2.6-.4.5-.5.9.5-.2 1-.2 1.2-.4.2.2.4.5-.1.9 1.4-.1 2.7.3 3.9.7-.6.1-1.4.1-1.4.6.3 1 2 .7 2.9 1.1.4-1 1-2 1.6-2.8.3 1 1.5.1 1.9.2-.6 0-.4-.8-.5-1.3-.5 0-.8-.1-.9-.4-.8-1.3 1.8-1.5 2.1-.8-.2.6 0 .8-.7 1.3 2-.4 2.8-1.7 3.8-2.8.7.3.6 1.3 1.7 1.3.3-.6.2-1.3 1-1.5 1.4-.3 4.1-.7 3.9 1.6-.6 0-1 .1-1 .4 1.3.2 1.3-.5 2.2-.6.1-.3-.3-.3-.5-.5 1.1-1.3 2.1-2.8 5-2.8.3.9 1.3 1.4 2.2 1.3-1.5 1.2 2.3 1.3 1.5 2.2 2-.2 5.4-.1 6.3 1.6-.1.3-.3.5-.5.6-1.3.2-1.5-.4-1.9-.9-.9.5-2.8 0-4 .5 0-.3.3-.4.3-.7-.5.1-.3-.5-1-.3-.1.2-.3.4-.5.7.5.1.5.5 1.1.4-.5.2-.8.6-.9 1.3 1 .3 1.7.5 2.6 0 .2.8.6.3 1.7.5.7-.1.6-.9 1.4-.9 3.2 1.3 6.4 1.6 10.1 1.7 0 .5.2 1.1.5 1.8-.2.4-.4.7-1.2.6-.3-1.1-.8-2-2-2.4-.3.6-1.2.7-1.9 1 .4.1.9.4.5.7-.8.3-.2-.5-1-.3.6 1-.8.6-.2 1.6-.5.1-1.8.6-1.9 0-.1-.5 1.1 0 .7-.6-.3-.2-1.9-.4-2.2 0 .9-.1.8.7 1 1.1-.6-.1-.8-.3-1.2.2.3.1.7.2.7.7-.7.3-1.7.5-2.1 1.1.8.6 1.4-.5 2.1-.6.2 0 .8.4 1 .4.5-.1.7-.6.9-.6.3 0 .9.6 1.2.6 2 0 4.5-1.9 6.3-.5v-.7c.8 0 1.3-.4 1.7.2.4-.3.2-1 .2-1.5.9.3.5-.2 1.2-.4.2.5-.3.5-.2.9.9 0 1-.5.7-1.1 2.5-.6 1.6-2.6 3.6-3.7 1-.3 1.2.3 1.9.3-.3-.8.5-1.3 0-1.7 1-.8 2.8-1 3.3-2.1-.4-.1-1 .5-1.2 0 .4-.5.5-1.1 1-1.5.4.1.3.7 1.2.5.5-1.3 5.3-.9 5.5.1.1 0 .4 0 .5-.1.7.3 1.5.4 2.5.1.2-.5-.2-.5-.4-.6.1-.1.2-.1.3-.1.6 0 1.2 0 1.1.5.5 0 1.1 0 1.4.2 0-.3-.1-.6.2-.6v.5c.5.1.7-.1 1-.1.1.2 0 .3.2.4 1 0 1.5-.3 2.1-.6.1-.5-.7-.9.2-1.1 1 .3.2.9.7 1.5.8-.4 2.1-.5 2 .7-.7.2-1.1-.6-1 .2.9.1 1.5.1 2.4-.2-.3-.5-.3-1.1.2-1.5.9-.2.9.3 1.7.3.1-.9 1.4-1 2-1.6.2 0 .2-.1.4-.1.4.3.3 1 .2 1.7-.1.1 0 .3-.3.4-.3-.3-.6-.5-.9-.7-.9.8-1.7 1.3-3.1 1.3.4.9-.6.8-.6 1.5-.1.1-.2.1-.4.1.1-.1.1-.2.2-.3-.4 0-.4.2-.7.3-.2-1.3-1.8-.9-3.1-1 .2.6-.9.2-.7.9 1.1.3 2.2.3 3.4.3-.6.3-1.4.5-1.8 1-.2-.3-.8-.3-1.2-.4 0 .8.4 1-.5 1.3-1.1-.4-2.4.6-4.3.2 0-.4-.3-.7-.2-1.3-1.6 0-1.9 1-3.3 1.1-.5-1.3-1.7.2-2.9 0-.7-.1-.6-.8-1.2-1.1-.2.7-.9 1.1-2.1 1.1.7 1.6-2.3.9-1.4 2.1-.7.1-1.2.3-1.6.6.7 1.7-1.6 1.3-1.6 2.6 3.1.1 4.6-1.7 7.5-.1-.4.6.3 1.1.3 1.5.5-.7 1.7-.2 2.4 0-.1-1 1.3-.8 1.9-.4-.2-.9 1.1.1 1-.4-.3 0-.5-.2-.5-.5 2.1-.6.9-3-1-3-.5.3-.6.7-1.5.6-1.4-1-3.2-1.7-4.8-.7-.5-2.4 3.8-1.6 5.3-.6 2.3-1.5 5.2-.8 7-1-.5 1-1.9 1.2-2.4 2.1 1.4.3 1.9.4 2.9.3-.2 1.1-2.7.5-3.6 1.1.7.1 1 .6 1.7.7.1-.8 1 .5 2.4-.4-.9-2.2 3-1.5 5.5-1.5-.1.4 0 .7.2.9-1.8 0-2.7.6-2.9 1.7 1.7 1 3.5.3 5.8.5.3-.2 0-.8.4-.8 1.7.5 2.9-.3 4.3-.2.5.4-.2.6.2.9 1.9.3 3.2-.3 4.6-.8.1-.6-.4-.6 0-.9.7.2 1.5.2 2.2.3-.7-.7.6-1.9-.8-2 0 .4.5.5.3 1.1-1.9.7-2.8-.1-4.3-.1.6-.8.2-1-.5-1.6.6-.3 1.1-.8 2.1-.8.6.3 1.2.6 2.4.5-.1-1.1 1.7.2 1.7-.9.6.1 1.7-.2 1.9.2.1.7-1 .4-1 1.1.5.6 1.4.9 2.7.9.2-.4-1-.5-.3-.7.3 0 .3-.2.5-.2 1.2.3.4 1.2 1.7 1.6-1 .7-1.5 1-.7 1.9.8-.1 1.3-.3 2.1 0 .8-.6 1.3-1.3 2.4-1.7-.7-2 2.9-2.8 3.3-1 1.3-.4 2.2.1 2.7.9-.6.1-.9.3-1.7.2-.1 1 1.9.4 2.2 1.1 0 .3-.3.4-.2.8-.6 0-1.2 0-1.2.4 2.6-1 6.3 0 5.6 2.5 1.8-.3 4.1-1.1 5.5-.8.3-.5.8-.9 1.6-1.1.7 0 .4.7 1 .7.7-1.2 2.6-1.4 4.1-1.9.7.8 0 1.7-.2 2.4 1.7-.5 1.9-.2 3.4.1.1-.3-.3-.3-.5-.5 1.8-.2 1.7-2.9 4-2.1 0-.6-.5-1-1.4-.9-1.1 1.2-3.1-.4-3.7-1.3.5-.3 1.3-.5 2.4-.4-.6.6.8.9 1.7.9-1.1-.7-.7-1.5-2-2.2 3.1-1.4 3.7 1.8 6.3.3 1.1 1 3 .3 3.4 2h1.4c.4.9 1.3 1.3 2.7 1.4.6 1.1 0 1.6.5 2.6.9-.3.4.1 1.2.2.4-1.9.8-3.3 1.4-4.8 3.9-.2 10-1.6 12.8.8-1 1.5-5.3.7-7.5.8.2 1.4-1.9 1.2-2.8 1.3.6 1.8 4.3.8 5.8 2.2.4-.2 0-1.1.7-1.1 1 .5 1.8-.2 2.6-.4 0 .5.8.4 1.4.5.9-.7 3-.6 3.4-1.7-.1.6.6-.1 1.2.3.8-.9.1-1.9 1.7-2.2.5.2 1.2.3 1.2.9 1.5-.5 1.9.5 2.7 1.1-3.2 1.2 1.7 2.7 3.2 1.4-.5-1.2 0-1.7 1.4-1.9v1.1c.9-.1 1.9 1 2.4 0-.5-.3-.7-.7-1.9-.5 0-.9-.7-1.3-.8-2 .6.1.4-.4.9-.4.3.4.4.9 1.2.9.9-.2.8-1.2 1.9-1.3 1.7.7 2.5.1 3.2 1.8-.7.5-.5 1.6.3 2.2-1.6.2-.7.4-.4.8-1-.2-1.6 0-1.5 1h.7c-.3-.7.7-.6.8-1 .1.1.4.2.1.4 1-.1 1 .5 1.9.4 0-.9-.2-.9.5-1.3 3.5 1 5.7.2 8.7.3-.6 1 .6 1.3-.5 1.9.8.1 1.2-.1 1.7-.2.2-.9-.6-.9-.5-1.7.9.1.9.9 1.9.9.8-.5 0-1.4 1.5-.8-.3-.8-1.9-.8-1.5-1.8 1.4 1 3.3 2.1 6.3 2.3.3-.5.6-.9 1.2-1.1 1.3.3 3 1.3 4.6.5.4.2.5.7 1 .9 1.5 0 1.3-.4 3-.4-.2-1.4.6-2 .4-3.3-1.8-.1-.3-1.6-.8-1.7 1.1.2 0 1.1 1 1.1.3.4 1-.5 1.4-.6.4.3.9.6 1.7.7.3-.6 2.4-1.1 2.6-.2-.3.2-.9.2-.9.6.4.1.7.4 1 .7-.7.1-.9-.3-1.6-.2 0-.1-.1-.3-.4-.5-.8-.1-1.4.1-1.9.2-.3 1.5 2 1.3 2.3.6.2.4 1.5.2 1.6 0 1 .8 1.6 1.7 3.1 2 .8-.1.4-.6.7-.7 2.1 1.2 2.3-1.1 4.2-1.4h.4c-.3.1-.7.1-.4.6 1.3 1 2.7-.8 3.8.1.3-.1.4-.3.6-.4 1.8 0 3.7-.1 5.8-.1.3.1.6.2.8.3.3-.4.8-.3 1.2-.4 1.6-.1 3.4-.1 4.5-.4 3.8.2 7.5 0 11.4-.1.1.3.4.6.3 1.1 1.3.1 1.6.2 2.9 0 0-.8 1.1-.8 1.7-1.1 1.7.7 3.4.9 4.8-.1h1.8c.3.2.7.4.8.8 1.1-.1 1.3-.7 1.7-1.2 2.7.3 5.7.1 8.5.5 1.4.1 2.2.5 3.8.6.6.4 1 1 1.2 1.8 1.2-1 2.6-1.8 4-2.7.5-.1 1-.3 1.3-.1.5.8 1.8.5 3 .4.9.1 1.9.3 2.4.9 1.5-.5 3.4-.3 5-.3 2.9 0 5.7-.2 7.7 0-.2-.4-.8-.6-.9-1.1.3 0 .6-.1.9-.1.3.1.6 0 .9.1l.1-.1c.1.1.2.2.2.3h-.6c-.3.4.2.7-.5 1.1 3.7.7 7.2 0 11.3.6.3.6-.1.7-.4.9.6-.2 1.3.6 1.7 0-.7 0-.8-.3-.8-.8.7-.7 1.6-.4 2.5-.3v.1c1.4.2 2.9.1 3.8-.6.2-.6-.6-.3-.7-.7.3-.3.2-.8.9-.8.1.4 0 .5 0 .7 0 .1-.1.1-.1.1.1 0 0 .1.1.1 0 .1.1.1 0 .3h.4c0 .1.1.1.2.2 4.3 0 9.9-.1 13.8-.5-1 .6-2.3 0-2.8.9 1.1 1.1 3.1.8 2.9-.9.2-.1.6-.1.8-.1-.2-.5-.4-.7-.7-.9 1.2.1 2.3.2 3.7-.2.5.1 1 .3 1.7.3-.8.1-1.5.6-2.7.2.6 1.6 3.2.4 5.3.5 0 .1-.1.3-.1.5 1.1-.3 1.8 0 2.6.2v.1c-.6 0-.8.3-1 .6 1.4-.2 1.7 0 2.9.2.8-4 8.6-.7 11.1-1.6-1.2-.1.2-.3.4-.4.2-.5-.7-.3-.5-.9.3 0 .6 0 .7-.2-.3-.1-.6-.2-.6-.6v-.1c.9-.2 1.1-.5 2.2-.2-.2-.9.7-1 .4-2-.6-.1-.9-.6-1.6-.7-.5 0-.9-.1-1.2-.3 0-.1.1-.1 0-.2-.6-.3-1.3.1-1.7-.5 0 .1-.2.1-.3.2-.4.4-1.1.4-1.6.3h-.2c.7-.6 1.4-.6 1.2-1.5.9.2.9-.3 1.1-.6.2 0 .2.2.3.2.2.4.5.6.9.9.1.4.4.6.7 1.1 3.1.1 5.9-1.1 9.1-.9 1.9.2 2.4-.3 2.8-1 .5 0 1.1.1 1.5-.1-.4.6.7.1.7.5-.6.3-1 .7-1 1.5.4.1 1-.5 1.2 0 .4.6-1.1 0-.7.7.1.1.3.2.2.4 1.5-.2 2.8-.3 4.1.1-.2-1.1 1.5-.8 1.9-1.5.5.4.8 1.3 1.9.7-1.3.8.9 1.3.3 1.9-.6 0-1.6-.5-1.9.2.9-.1 1.5.1 1.7.5.1.6-1 .3-.9.9.4.5 1.2-.4 2.1-.2v.7c.9.3 1.4-.2 2.2-.4-.7-.3-.9-1.2-.6-1.8.1 0 .2.1.3.3 1.6.1 2.1-.7 3.8-.4-.1-.7.6-1.3 1.9-.9-.2-1-2.2-.2-1.5-1.1-.9.6-1.4 0-1.9-.7 4.4-1.4 11.2.2 15.9.4-.3-.5-.2-.9.5-1.1 0 1 1.4.9 2.2 1.3.2-.4.4-.8 1.2-.8 0 1.5-.5 1.7-.7 3.3 1.1.5 1.8.7 3.1.3.6.3-.4.6.5.6.3-.1.7 0 .7-.2-.6-.1.4-.3.3-.6-1.1-.6-2.5-.5-3.4-.9.5-.9 2.3-1.5 3.6-1.2.1-4 6-.6 8.4-2.5 1.7.9 7.1.6 9.8.3.1.3.5.4.5.9l-2.1.6c-.2 1.2 1.8.7 1.5 2-1.6-.1-2.6.2-4.1.2 1.5 1.2 2.6 2.7 4.2 3.8-.3-.8 0-1-.3-1.7 0-.3 2-.1 1.2-.4-.7-.1-1.9.2-2.2-.2V19c1.1-.5 2.2-.3 3.1.2.5-.5.8-1 .7-1.9 1.5-.4 2.6-.9 2.9-2.1.1-.6-.9-.2-.7-.8.8-.3 1.8-.5 2.6.2-.8.9 1.1 1.1 0 2 1.4-.1 2.7.3 3.9.7-.6.1-1.4.1-1.4.6.3 1 2 .7 2.9 1.1.4-1 1-2 1.6-2.8.3 1 1.5.1 1.9.2-.6 0-.4-.8-.5-1.3-.5 0-.8-.1-.9-.4-.8-1.3 1.8-1.5 2.1-.8-.2.6 0 .8-.7 1.3 2-.4 2.8-1.7 3.8-2.8.7.3.6 1.3 1.7 1.3.3-.6.2-1.3 1-1.5 1.4-.3 4.1-.7 3.9 1.6-.6 0-1 .1-1 .4 1.3.2 1.3-.5 2.2-.6.1-.3-.3-.3-.5-.5 1.1-1.3 2.1-2.8 5-2.8.3.9 1.3 1.4 2.2 1.3-1.5 1.2 2.3 1.3 1.5 2.2 2-.2 5.4-.1 6.3 1.6-.1.3-.3.5-.5.6-1.3.2-1.5-.4-1.9-.9-1.2.7-4.7-.6-5 1.9 1 .3 1.7.5 2.6 0 .2.8.6.3 1.7.5.7-.1.6-.9 1.4-.9 3.2 1.3 6.4 1.6 10.1 1.7 0 .5.2 1.1.5 1.8-.2.4-.4.7-1.2.6-.3-1.1-.8-2-2-2.4-.3.6-1.2.7-1.9 1 .4.1.9.4.5.7-.8.3-.2-.5-1-.3.6 1-.8.6-.2 1.6-.5.1-1.8.6-1.9 0-.1-.5 1.1 0 .7-.6-.3-.2-1.9-.4-2.2 0 .9-.1.8.7 1 1.1-.6-.1-.8-.3-1.2.2.3.1.7.2.7.7-.7.3-1.7.5-2.1 1.1.8.6 1.4-.5 2.1-.6.2 0 .8.4 1 .4.5-.1.7-.6.9-.6.3 0 .9.6 1.2.6 2 0 4.5-1.9 6.3-.5v-.7c.8 0 1.3-.4 1.7.2.4-.3.2-1 .2-1.5.9.3.5-.2 1.2-.4.2.5-.3.5-.2.9.9 0 1-.5.7-1.1 2.5-.6 1.6-2.6 3.6-3.7 1-.3 1.2.3 1.9.3-.3-.8.5-1.3 0-1.7 1-.8 2.8-1 3.3-2.1-.4-.1-1 .5-1.2 0 .4-.5.5-1.1 1-1.5.4.1.3.7 1.2.5.6-1.3 5.4-.9 5.6.1 1.6-.8 4-1 6-1.5.8.5 0 1.1.8 1.7 1 0 1.5-.3 2.1-.6.1-.5-.7-.9.2-1.1 1 .3.2.9.7 1.5.8-.4 2.1-.5 2 .7-.7.2-1.1-.6-1 .2.9.1 1.5.1 2.4-.2-.3-.5-.3-1.1.2-1.5.9-.2.9.3 1.7.3.2-1.1 2-.9 2.4-1.9.6.3.8 2 .3 2.6-.1-.5-.8-.6-1.2-.9-.9.8-1.7 1.3-3.1 1.3.4 1.1-.9.8-.7 1.7 1.2-.1 2.4-.1 2.7.5-.7 1.2-2.4 1.8-4 1.4.6-.6.7-1.5 1.2-2.2-1.7 0-2.3.8-2.9 1.5-.2-.3-.8-.3-1.2-.4 0 .8.4 1-.5 1.3-1.1-.4-2.4.6-4.3.2 0-.4-.3-.7-.2-1.3-1.6 0-1.9 1-3.3 1.1-.5-1.3-1.7.2-2.9 0-.7-.1-.6-.8-1.2-1.1-.2.7-.9 1.1-2.1 1.1.7 1.6-2.3.9-1.4 2.1-.7.1-1.2.3-1.6.6.7 1.7-1.6 1.3-1.6 2.6 3.1.1 4.6-1.7 7.5-.1-.4.6.3 1.1.3 1.5.5-.7 1.7-.2 2.4 0-.1-1 1.3-.8 1.9-.4-.2-.9 1.1.1 1-.4-.3 0-.5-.2-.5-.5 2.1-.6.9-3-1-3-.5.3-.6.7-1.5.6-1.4-1-3.2-1.7-4.8-.7-.5-2.4 3.8-1.6 5.3-.6 2.3-1.5 5.2-.8 7-1-.5 1-1.9 1.2-2.4 2.1 1.4.3 1.9.4 2.9.3-.2 1.1-2.7.5-3.6 1.1.7.1 1 .6 1.7.7.1-.8 1 .5 2.4-.4-.9-2.2 3-1.5 5.5-1.5-.1.4 0 .7.2.9-1.8 0-2.7.6-2.9 1.7 1.7 1 3.5.3 5.8.5.3-.2 0-.8.4-.8 1.7.5 2.9-.3 4.3-.2.5.4-.2.6.2.9 1.9.3 3.2-.3 4.6-.8.1-.6-.4-.6 0-.9.6.2 1.4.2 2.6.1-.7-.7.6-1.9-.8-2 0 .4.5.5.3 1.1-1.9.7-2.8-.1-4.3-.1.6-.8.2-1-.5-1.6.6-.3 1.1-.8 2.1-.8.6.3 1.2.6 2.4.5-.1-1.1 1.7.2 1.7-.9.6.1 1.7-.2 1.9.2.1.7-1 .4-1 1.1.5.6 1.4.9 2.7.9.3-.4-1-.5-.3-.7.3 0 .3-.2.5-.2 1.2.3.4 1.2 1.7 1.6-1 .7-1.5 1-.7 1.9.8-.1 1.3-.3 2.1 0 .8-.6 1.3-1.3 2.4-1.7-.7-2 2.9-2.8 3.3-1 1.3-.4 2.2.1 2.7.9-.6.1-.9.3-1.7.2-.1 1 1.9.4 2.2 1.1 0 .3-.3.4-.2.8-.6 0-1.2 0-1.2.4 2.6-1 6.3 0 5.6 2.5 1.8-.3 4.1-1.1 5.5-.8.3-.5.8-.9 1.6-1.1.7 0 .4.7 1 .7.7-1.2 2.6-1.4 4.1-1.9.7.8 0 1.7-.2 2.4 1.7-.5 1.9-.2 3.4.1.1-.3-.3-.3-.5-.5 1.8-.2 1.7-2.9 4-2.1 0-.6-.5-1-1.4-.9-1.1 1.2-3.1-.4-3.7-1.3.5-.3 1.3-.5 2.4-.4-.6.6.8.9 1.7.9-1.1-.7-.7-1.5-2-2.2 3.1-1.4 3.7 1.8 6.3.3 1.1 1 3 .3 3.4 2h1.4c.4.9 1.3 1.3 2.7 1.4.6 1.1 0 1.6.5 2.6.9-.3.4.1 1.2.2.4-1.9.8-3.3 1.4-4.8 3.9-.2 10-1.6 12.8.8-1 1.5-5.3.7-7.5.8.2 1.4-1.9 1.2-2.8 1.3.6 1.8 4.3.8 5.8 2.2.4-.2 0-1.1.7-1.1 1 .5 1.8-.2 2.6-.4 0 .5.8.4 1.4.5.9-.7 3-.6 3.4-1.7-.1.6.6-.1 1.2.3.8-.9.1-1.9 1.7-2.2.5.2 1.2.3 1.2.9 1.5-.5 1.9.5 2.7 1.1-3.2 1.2 1.7 2.7 3.2 1.4-.5-1.2 0-1.7 1.4-1.9v1.1c.9-.1 1.9 1 2.4 0-.5-.3-.8-.7-1.9-.5 0-.9-.7-1.3-.8-2 .6.1.4-.4.9-.4.3.4.4.9 1.2.9.9-.2.8-1.2 1.9-1.3 1.7.7 2.5.1 3.2 1.8-.7.5-.5 1.6.3 2.2-1.6.2-.7.4-.4.8-1-.2-1.6 0-1.5 1h.7c-.3-.7.7-.6.8-1 .1.1.4.2.1.4 1-.1 1 .5 1.9.4 0-.9-.2-.9.5-1.3 3.5 1 5.7.2 8.7.3-.6 1 .6 1.3-.5 1.9.8.1 1.2-.1 1.7-.2.2-.9-.6-.9-.5-1.7.9.1.9.9 1.9.9.8-.5 0-1.4 1.5-.8-.3-.8-1.9-.8-1.5-1.8 1.4 1 3.3 2.1 6.3 2.3.3-.5.6-.9 1.2-1.1 1.3.3 3 1.3 4.6.5.4.2.5.7 1 .9 1.5 0 1.3-.4 2.9-.2-.2-1.4.6-2 .4-3.3-1.8-.1-.3-1.6-.8-1.7 1.1.2 0 1.1 1 1.1.3.4 1-.5 1.4-.6.4.3.9.6 1.7.7.3-.6 2.4-1.1 2.6-.2-.3.2-.9.2-.9.6 1.8.5 2.1 2.3 4.1 2.7.8-.1.4-.6.7-.7 2.4 1.3 2.1-2.1 4.8-1.7.1.5-.9.2-.7.8 1.3 1 2.7-.8 3.8.1 1.5-.3 1.7-1.3 2.6-1.7.8.9 3.3.8 4.6 1.4 1.3-1.9 3.7-.3 6-1.2 0-.9 1-1 3.3-2.4 1 .9 2.7 1.4 4.9 1.4-.3-.5-.2-.7.5-.9 1.6 0 2.3.3 3.6 0 .3.6.6 1.2.5 2.2 1.3.1 1.6.2 2.9 0 0-.8 1.1-.8 1.7-1.1 2 .8 3.8 1.2 5.3-.2.2.6.7.1 1.2 0 .4.2.9.4 1 .9 1.7-.1 2.4-.8 2.7-1.9 2.7 1.5 6.7 1.5 11.4 1.7.6.4 1 1 1.2 1.8 1.5-1.1 3.2-2.1 4.8-3.2 1.4.8 4.7 0 6 1.6 3-1.1 5.8-.8 9.9-.7.2-1.1 2.5-.7 3.8-1 .4.2 0 1.1.7 1.1.7-.6 2.7-.7 3.9-.4.1-.5.5-.8.7-1.3-.5-.4-.9-.3-.5-.9 1.6.1 4.5-.3 5.2-1.4.9.1 2.3-.3 2.4.4-.7.6-1.6 1.2-2.8 1.5-.2 1 1.4.7 1.2 1.8 1.4 0 1.2.1 2.4.3 0 .4.1.7.3.9 1.4.2 2.9.1 3.8-.6.2-.6-.6-.3-.7-.7.3-.3.2-.8.9-.8.2.5.2.6 0 1.1 1.6.2 1.7.4 2.6 0 .2-1.1.9-2 .4-2.6 1.7-.3 1.4 1 2.9.9.8-.6-.5-.9-.5-1.6.4-.5.9-1 1.9-1 .3.1.6.3.7.6-.4.7-1.3 1-1.4 1.9 5 .2 7.6 1.6 11.6.4 1.2.5 3.6.1 4.3.9.1.3-.2.4-.2.7 1.4-.3 2.4 0 3.6.3.8-.5-.1-1.3-.3-2 .2 0 .6-.1.9-.1.6.4 1 1 2.3.9.3-.7 1.4-.8 2.4-.9 1 .1 2.1.2 2.4.9 1.3.1 1.7-.5 2.3-.9.3 0 .7.1.9.1-.2.7-1.2 1.5-.3 2 1.2-.3 2.1-.6 3.6-.3 0-.3-.3-.4-.2-.7.7-.9 3.1-.4 4.3-.9 4 1.2 6.7-.2 11.6-.4-.2-.9-1-1.2-1.4-1.9.1-.3.4-.5.7-.6 1 0 1.5.5 1.9 1 .1.7-1.3.9-.5 1.6 1.5.1 1.2-1.2 2.9-.9-.5.7.1 1.5.4 2.6.9.4 1 .2 2.6 0-.2-.5-.2-.6 0-1.1.6 0 .6.6.9.8 0 .3-.9.1-.7.7.8.7 2.4.8 3.8.6.2-.2.3-.5.3-.9 1.1-.2 1-.3 2.4-.3-.2-1.1 1.4-.7 1.2-1.8-1.1-.3-2-.9-2.8-1.5.1-.7 1.5-.3 2.4-.4.6 1.2 3.5 1.6 5.2 1.4.4.6 0 .5-.5.9.2.5.6.8.7 1.3 1.2-.3 3.3-.3 3.9.4.7 0 .3-.9.7-1.1 1.2.4 3.6-.1 3.8 1 4.1-.1 6.9-.3 9.9.7 1.3-1.6 4.6-.8 6-1.6 1.6 1.1 3.3 2.1 4.8 3.2.2-.8.5-1.4 1.2-1.8 4.7-.2 8.7-.1 11.4-1.7.3 1.1 1.1 1.8 2.7 1.9.2-.4.6-.7 1-.9.5.1 1 .6 1.2 0 1.5 1.4 3.4 1 5.3.2.7.3 1.7.3 1.7 1.1 1.2.2 1.6 0 2.9 0-.2-1 .2-1.6.5-2.2 1.3.2 2-.1 3.6 0 .7.2.8.4.5.9 2.2 0 3.9-.4 4.9-1.4.8.3 1.9.4 1.9 1.3 2.4.9 4.7-.7 6 1.2 1.3-.6 3.7-.4 4.6-1.4.9.4 1.1 1.4 2.6 1.7 1.1-.8 2.4.9 3.8-.1.2-.6-.8-.3-.7-.8 2.7-.4 2.4 3 4.8 1.7.3.1-.1.6.7.7 2-.4 2.3-2.2 4.1-2.7 0-.4-.6-.4-.9-.6.2-.9 2.3-.4 2.6.2.8 0 1.3-.4 1.7-.7.4.1 1.1 1 1.4.6 1 0-.1-.9 1-1.1-.5.1 1 1.6-.7 1.7-.2 1.2.7 1.9.4 3.3 1.6-.2 1.4.2 2.9.2.5-.2.6-.7 1-.9 1.6.8 3.3-.2 4.6-.5.6.2.9.6 1.2 1.1 3-.2 4.9-1.2 6.3-2.3.4 1-1.2.9-1.5 1.8 1.6-.5.7.3 1.5.8 1 0 1-.8 1.9-.9.1.8-.7.9-.5 1.7.6.1.9.3 1.7.2-1.2-.7 0-.9-.5-1.9 3-.1 5.2.6 8.7-.3.7.4.6.4.5 1.3.9.1.9-.5 1.9-.4-.3-.2 0-.3.1-.4.1.4 1.1.3.8 1h.7c.1-1-.5-1.2-1.5-1 .3-.4 1.1-.5-.4-.8.8-.6 1-1.7.3-2.2.7-1.7 1.5-1.1 3.2-1.8 1.1.1 1 1.1 1.9 1.3.8 0 .9-.5 1.2-.9.5 0 .2.5.9.4-.2.7-.9 1.1-.8 2-1.1-.3-1.4.2-1.9.5.5.9 1.5-.1 2.4 0v-1.1c1.4.2 1.9.7 1.4 1.9 1.6 1.3 6.5-.2 3.2-1.4.8-.6 1.2-1.6 2.7-1.1 0-.6.7-.7 1.2-.9 1.6.3.9 1.2 1.7 2.2.6-.3 1.2.4 1.2-.3.4 1.1 2.5.9 3.4 1.7.5-.1 1.4.1 1.4-.5.7.2 1.6 1 2.6.4.7 0 .3.8.7 1.1 1.5-1.4 5.2-.4 5.8-2.2-.9-.1-2.9.1-2.8-1.3-2.2-.1-6.5.7-7.5-.8 2.8-2.4 9-1 12.8-.8.6 1.5 1.1 2.9 1.4 4.8.9-.1.3-.5 1.2-.2.4-1-.1-1.5.5-2.6 1.4-.1 2.3-.5 2.7-1.4h1.4c.4-1.7 2.3-1 3.4-2 2.6 1.5 3.2-1.7 6.3-.3-1.3.6-.9 1.5-2 2.2.9 0 2.2-.3 1.7-.9 1.1-.1 1.9.1 2.4.4-.7.9-2.6 2.5-3.7 1.3-.9-.1-1.3.3-1.4.9 2.3-.7 2.1 1.9 4 2.1-.2.1-.5.1-.5.5 1.5-.2 1.7-.5 3.4-.1-.1-.7-.9-1.6-.2-2.4 1.5.5 3.5.8 4.1 1.9.6 0 .3-.7 1-.7.7.1 1.3.5 1.6 1.1 1.4-.3 3.6.5 5.5.8-.7-2.5 3-3.5 5.6-2.5 0-.4-.6-.4-1.2-.4.1-.4-.2-.5-.2-.8.3-.7 2.3-.1 2.2-1.1-.8.1-1.1-.1-1.7-.2.4-.8 1.4-1.3 2.7-.9.3-1.7 3.9-1 3.3 1 1.1.4 1.6 1.1 2.4 1.7.7-.3 1.3-.1 2.1 0 .8-.9.3-1.3-.7-1.9 1.3-.3.4-1.2 1.7-1.6.2 0 .2.2.5.2.6.1-.6.2-.3.7 1.3 0 2.1-.3 2.7-.9 0-.6-1.2-.4-1-1.1.1-.5 1.3-.1 1.9-.2 0 1.1 1.8-.3 1.7.9 1.1.1 1.7-.2 2.4-.5 1 0 1.4.5 2.1.8-.6.6-1.1.7-.5 1.6-1.5-.1-2.3.8-4.3.1-.2-.6.3-.7.3-1.1-1.5.1-.1 1.3-.8 2 .7-.1 1.5-.1 2.1-.3.4.3-.1.3 0 .9 1.4.4 2.7 1.1 4.6.8.4-.3-.4-.5.2-.9 1.4-.1 2.6.7 4.3.2.4.1.1.7.4.8 2.2-.2 4 .5 5.8-.5-.2-1.1-1.1-1.7-2.9-1.7.2-.2.3-.5.2-.9 2.5 0 6.4-.7 5.5 1.5 1.4.9 2.3-.4 2.4.4.7-.1 1-.6 1.7-.7-.9-.6-3.4 0-3.6-1.1 1 .2 1.5 0 2.9-.3-.5-1-1.9-1.1-2.4-2.1 1.9.2 4.7-.5 7 1 1.5-1 5.8-1.9 5.3.6-1.6-1-3.4-.3-4.8.7-.9.1-1.1-.3-1.5-.6-1.9.1-3.1 2.4-1 3 0 .3-.2.4-.5.5-.1.5 1.2-.5 1 .4.5-.4 2-.6 1.9.4.7-.2 1.9-.7 2.4 0 .1-.4.8-.9.3-1.5 3-1.6 4.5.2 7.5.1.1-1.3-2.2-.8-1.6-2.6-.4-.3-.9-.5-1.6-.6.9-1.2-2.1-.5-1.4-2.1-1.1 0-1.9-.3-2.1-1.1-.5.3-.5 1-1.2 1.1-1.2.2-2.4-1.2-2.9 0-1.4-.1-1.7-1.1-3.3-1.1.1.6-.1.9-.2 1.3-1.8.4-3.2-.6-4.3-.2-1-.3-.5-.5-.5-1.3-.4.1-1 .1-1.2.4-.7-.7-1.2-1.5-2.9-1.5.5.6.6 1.6 1.2 2.2-1.5.4-3.3-.3-4-1.4.3-.5 1.5-.5 2.6-.5.2-.9-1.2-.6-.7-1.7-1.4 0-2.2-.5-3.1-1.3-.4.3-1.1.4-1.2.9-.5-.6-.2-1.4.4-1.7.4 1 2.2-.1 2.3 1 .8.1.8-.4 1.7-.3.5.4.5 1 .2 1.5.9.3 1.5.3 2.4.2.1-.8-.3 0-1-.2-.1-1.2 1.2-1.1 2-.7.4-.6-.3-1.2.7-1.5.9.2.1.5.2 1.1.6.3 1.1.6 2.1.6.8-.6 0-1.2.8-1.7 2 .5 4.4.7 6 1.5.2-1 4.9-1.4 5.5-.1.9.2.8-.3 1.2-.5.5.4.7 1 1 1.5-.2.6-.8-.1-1.2 0 .5 1.2 2.3 1.3 3.3 2.1-.5.4.3.9 0 1.7.7 0 .9-.5 1.9-.3 2 1 1.1 3 3.6 3.7-.3.5-.2 1 .7 1.1.1-.4-.4-.4-.2-.9.7.2.3.8 1.2.4 0 .5-.2 1.2.2 1.5.4-.6.9-.2 1.7-.2v.7c1.9-1.4 4.3.6 6.3.5.3-.1.9-.6 1.2-.6.2 0 .4.6.9.6.2 0 .8-.4 1-.4.6.2 1.3 1.2 2.1.6-.4-.6-1.4-.8-2.1-1.1-.1-.4.4-.6.7-.7-.4-.4-.6-.3-1.2-.2.2-.4.1-1.2 1-1.1-.3-.3-1.9-.2-2.2 0-.4.7.8.2.7.6 0 .6-1.4.1-1.9 0 .6-1-.8-.5-.2-1.6-.8-.3-.2.5-1 .3-.4-.3.1-.5.5-.7-.7-.4-1.6-.4-1.9-1-1.2.4-1.7 1.3-2 2.4-.8 0-1-.3-1.2-.6.3-.7.5-1.3.5-1.8 3.6-.1 6.8-.4 10.1-1.7.8 0 .7.8 1.4.9 1.1-.1 1.5.3 1.7-.5.8.5 1.6.3 2.6 0-.3-2.5-3.8-1.1-5-1.9-.3.5-.6 1.1-1.9.9-.2-.2-.4-.4-.5-.6.9-1.8 4.3-1.8 6.3-1.6-.8-.9 3-1 1.5-2.2.9 0 2.3.4 2.6-.5 2.9 0 3.5.6 4.6 2-.2.1-.5.1-.5.5.9.1.9.9 2.2.6-.1-.3-.4-.4-1-.4-.2-2.3 2.5-1.9 3.9-1.6.9.2.8.9 1 1.5 1.1-.1 1-1 1.7-1.3 1 1.1 1.8 2.4 3.8 2.8-.7-.5-.5-.7-.7-1.3.3-.7 2.8-.5 2.1.8 0 .3-.3.4-.9.4 0 .5.2 1.3-.5 1.3.4-.1 1.5.7 1.9-.2.6.8 1.1 1.8 1.6 2.8 1-.4 2.7-.2 2.9-1.1 0-.6-.8-.5-1.4-.6 1.3-.4 2.6-.8 3.9-.7-1.1-.8.8-1 0-2 .7-.7 1.7-.6 2.6-.2.2.7-.7.3-.7.8.3 1.2 1.5 1.7 2.9 2.1-.1.9.3 1.4.7 1.9.9-.5 2-.7 3.1-.2v.7c-.3.5-1.5.1-2.2.2-.8.3 1.2.1 1.2.4-.3.7 0 .9-.3 1.7 1.6-1.1 2.7-2.6 4.2-3.8-1.5 0-2.5-.3-4.1-.2-.3-1.3 1.7-.8 1.5-2-.6-.3-1.3-.5-2.1-.6-.1-.4.4-.6.5-.9 2.6.3 8 .6 9.8-.3 2.4 1.9 8.3-1.6 8.4 2.5 1.3-.2 3.1.3 3.6 1.2-.9.4-2.2.3-3.4.9-.1.3 1 .5.3.6 0 .2.4.2.7.2.9 0-.1-.3.5-.6 1.3.5 1.9.2 3.1-.3-.2-1.6-.7-1.9-.7-3.3h.1c.6.1 1 .3 1.1.7.4-.2.5-.4.9-.5.6.1 1.2.1 1.8.2 0 .1.1.1.1.2.2 0 .6-.1.8-.1.9.2 1.8.3 2.7.3.2-.3.3-.4.4-.6 1.1-.1 2.1-.2 3.2-.3.3.1.3.4.6.7-.6.2-1.4.1-1.9-.4-1.5 0-1.8.9-3.2.9 0 .6.4 1.3.7 2-1.7.4-3.6.8-4.2 1.5-.5-.1-1.1-.2-1.9-.2.2.3.6.4.7.8.6-.1 1.5-.3 1.1.6 1.8-.5 3.5-1 4-2.4 0 .1.3.1.4.2.1.3.2.3.3.7 1.6.4 1.9 1.8 4.3 1.7.2.1.4.3.4.6.6-.5 1.1.2 1.5-.2-.5-.9.4-1.1 1-1.6 1.7-.1 3.6.2 5 .3-.2.7-1.2 1.5-.3 2 .6-.1 1.2 0 1.7-.1.3 0 .4-.1.5-.1.4 0 .8-.2 1.4-.1 0-.3-.3-.4-.2-.7.7-.9 3.1-.4 4.3-.9.9.2 1.6 0 2.3.1.2.4.3.8.1 1.4.6.2 1.2.2 1.8.2.4 1 1.6 1.2 2.5.4-.4-.6-1.2-.5-2-.6-.3-.4-.2-.8-.3-1.2.4-.1.9.1 1.3 0 .6.2 1.6.1 1.5.8.4-.5.2-.6 1.2-.4-.5-.2-.2-.5-.1-.7.7-.1 1.4-.2 2.3-.3-.2.2-.7.3-1 .5 0 .3.7.2.5.7 1.1.1 2 .1 2.6-.3.5.1.6.4.5.8h.9c0-.3.1-.4.3-.4-.8-.6-.5-1.2-.7-1.6.4-.2.7-.5 1.5-.4-.5.7.1 1.5.4 2.6.9.4 1 .2 2.6 0-.2-.4-.1-.6 0-.8.1 0 .1.1.2.1V20c.3.1.5.3.7.5 0 .3-.9.1-.7.7.7.6 1.9.6 3.1.5.7.3 1.9.1 2.9.2-.1-.2-1.3-.4-.5-.7-.3.1-.9.3-1.6.4.1-.2.2-.3.2-.6 1.1-.2 1-.3 2.4-.3-.1-.3.2-.4.3-.5 2.7-.3 5.3-.4 5.7 1.9 1.2-.2 1.5-.5 2.9-.2-.2-.3-.4-.6-1-.6.2-.2 0-.4.1-.6.8 0 1.8-.2 2.1.2.3 0 .3-.3.3-.5 1.3 0 2.4-.1 3.5-.1.3.1.8.1.8.4 4.1-.1 6.9-.3 9.9.7.3-.4.9-.3 1.3-.5 2.2.1 4.4.1 6.4.1 1 .6 2.1 1.3 3 2 .1-.6.5-1 .9-1.4 1.3-.2 2.3-.5 3.2.4 0 .5-.1.8-.8.8.4.5 1.1-.2 1.7 0-.2-.2-.6-.3-.4-.9 3.8-.6 7.1-.1 10.5-.6.1 0 0 .1.1.1 0-.1.1-.1.1-.1h.6c-.3-.1-.2-.3-.2-.4.2-.1.2-.3.4-.4.2 0 .3-.1.5 0-.3.1-.4.4-.5.6.8-.1 1.9 0 2.9 0 .6.1 1.2.1 1.8 0h2.4c.5.1 1.1.2 1.1.7 1.2.2 1.6 0 2.9 0 0-.4.2-.7.3-1 .8-.1 1.6 0 2.4-.2.6.2 1.1-.2 1.8-.2 0 .1.2.1.1.2.5 0 .7-.2 1.1-.3.5-.2 1.2.1 1.4-.2.6-.3 2.3.9 2.6-.3-.6 0-1.1 0-1.4-.2.1 0 .1-.1.1-.1.3-.1.9-.1 1.1-.3.2.1.2.2.3.2v.1c.9-.4 1.4 0 1.2.9h.3c0 .1.2 0 .2.1 2.4.9 4.7-.7 6 1.2 1.2-.6 3.1-.6 4.2-1.3h.6c.7.5 1 1.3 2.4 1.6 1.1-.8 2.4.9 3.8-.1.2-.6-.8-.3-.7-.8 2.7-.4 2.4 3 4.8 1.7.3.1-.1.6.7.7 2-.4 2.3-2.2 4.1-2.7 0-.1-.1 0-.2-.1 1.9.1 3.6.1 5.5.1-.1 0 0 .1-.1.1-.2 1.2.7 1.9.4 3.3 1.6-.2 1.4.2 2.9.2.5-.2.6-.7 1-.9 1.6.8 3.3-.2 4.6-.5.6.2.9.6 1.2 1.1 3-.2 4.9-1.2 6.3-2.3.4 1-1.2.9-1.5 1.8 1.6-.5.7.3 1.5.8 1 0 1-.8 1.9-.9.1.8-.7.9-.5 1.7.5.1.9.3 1.7.2-1.2-.7 0-.9-.5-1.9 3-.1 5.2.6 8.7-.3.7.4.6.4.5 1.3.9.1.9-.5 1.9-.4-.3-.2 0-.3.1-.4.1.4 1.1.3.8 1h.7c.1-1-.5-1.2-1.5-1 .3-.4 1.1-.5-.4-.8.8-.6 1-1.7.3-2.2.7-1.7 1.5-1.1 3.2-1.8 1.1.1 1 1.1 1.9 1.3.8 0 .9-.5 1.2-.9.5 0 .2.5.9.4-.2.7-.9 1.1-.8 2-1.1-.3-1.4.2-1.9.5.5.9 1.5-.1 2.4 0v-1.1c1.4.2 1.9.7 1.4 1.9 1.6 1.3 6.5-.2 3.2-1.4.8-.6 1.2-1.6 2.7-1.1 0-.6.7-.7 1.2-.9 1.6.3.9 1.2 1.7 2.2.6-.3 1.2.4 1.2-.3.4 1.1 2.5.9 3.4 1.7.5-.1 1.4.1 1.4-.5.7.2 1.6 1 2.6.4.7 0 .3.8.7 1.1 1.5-1.4 5.2-.4 5.8-2.2-.9-.1-2.9.1-2.8-1.3-2.2-.1-6.5.7-7.5-.8 2.8-2.4 9-1 12.8-.8.6 1.5 1 2.9 1.4 4.8.9-.1.3-.5 1.2-.2.4-1-.1-1.5.5-2.6 1.4-.1 2.3-.5 2.7-1.4h1.4c.4-1.7 2.3-1 3.4-2 2.6 1.5 3.2-1.7 6.3-.3-1.3.6-.9 1.5-2 2.2.9 0 2.2-.3 1.7-.9 1.1-.1 1.9.1 2.4.4-.7.9-2.6 2.5-3.7 1.3-.9-.1-1.3.3-1.4.9 2.3-.7 2.1 1.9 4 2.1-.2.1-.5.1-.5.5 1.5-.2 1.7-.5 3.4-.1-.1-.7-.9-1.6-.2-2.4 1.6.5 3.5.8 4.1 1.9.6 0 .3-.7 1-.7.7.1 1.3.5 1.6 1.1 1.4-.3 3.6.5 5.5.8-.7-2.5 3-3.5 5.6-2.5 0-.4-.6-.4-1.2-.4.1-.4-.2-.5-.2-.8.3-.7 2.3-.1 2.2-1.1-.8.1-1.1-.1-1.7-.2.4-.8 1.4-1.3 2.7-.9.3-1.7 3.9-1 3.3 1 1.1.4 1.6 1.1 2.4 1.7.7-.3 1.3-.1 2.1 0 .8-.9.3-1.3-.7-1.9 1.3-.3.4-1.2 1.7-1.6.2 0 .2.2.5.2.6.1-.6.2-.3.7 1.3 0 2.1-.3 2.7-.9 0-.6-1.2-.4-1-1.1.1-.5 1.3-.1 1.9-.2 0 1.1 1.8-.3 1.7.9 1.1.1 1.7-.2 2.4-.5 1 0 1.4.5 2.1.8-.6.6-1.1.7-.5 1.6-1.5-.1-2.3.8-4.3.1-.2-.6.3-.7.3-1.1-1.5.1-.1 1.3-.8 2 .7-.1 1.5-.1 2.1-.3.5.3-.1.3 0 .9 1.4.4 2.7 1.1 4.6.8.4-.3-.4-.5.2-.9 1.4-.1 2.6.7 4.3.2.4.1.1.7.4.8 2.2-.2 4 .5 5.8-.5-.2-1.1-1.1-1.7-2.9-1.7.2-.2.3-.5.2-.9 2.5 0 6.4-.7 5.5 1.5 1.4.9 2.3-.4 2.4.4.7-.1 1-.6 1.7-.7-.9-.6-3.4 0-3.6-1.1 1 .2 1.5 0 2.9-.3-.5-1-1.9-1.1-2.4-2.1 1.9.2 4.7-.5 7 1 1.5-1 5.8-1.9 5.3.6-1.6-1-3.4-.3-4.8.7-.9.1-1.1-.3-1.5-.6-1.9.1-3.1 2.4-1 3 0 .3-.2.4-.5.5-.1.5 1.2-.5 1 .4.5-.4 2-.6 1.9.4.7-.2 1.9-.7 2.4 0 0-.4.7-.9.2-1.5 3-1.6 4.5.2 7.5.1.1-1.3-2.2-.8-1.6-2.6-.4-.3-.9-.5-1.6-.6.9-1.2-2.1-.5-1.4-2.1-1.1 0-1.9-.3-2.1-1.1-.5.3-.5 1-1.2 1.1-1.2.2-2.4-1.2-2.9 0-1.4-.1-1.7-1.1-3.3-1.1.1.6-.1.9-.2 1.3-1.8.4-3.2-.6-4.3-.2-1-.3-.5-.5-.5-1.3-.4.1-1 .1-1.2.4-.7-.7-1.3-1.5-2.9-1.5.1.1.1.2.2.3-.2-.2-.3-.4-.6-.6-.3-.2-.7-.4-.4-1-1.4 0-2.2-.5-3.1-1.3-.4.3-1.1.4-1.2.9-.5-.6-.3-2.3.3-2.6.4 1 2.3.8 2.4 1.9.8.1.8-.4 1.7-.3.5.4.5 1 .2 1.5.9.3 1.5.3 2.4.2.1-.8-.3 0-1-.2-.1-1.2 1.2-1.1 2-.7.4-.5.1-.9.6-1.2h.2c.3.2.1.5.2.9.6.3 1.1.6 2.1.6.8-.6 0-1.2.8-1.7 1.8.5 3.8.8 5.4 1.4-.4 0-.7.2-1.1.2.7 1.6 4.6.1 5.5.8 0 0 0-.1.1-.1.6 0 1.2.1 1.3.5-.2.4-1.2.1-1.6.3h-.2c-1-.5-1.5-.5-2.8-.6.3.5.8.5 1.3.7-1.7.1-3.4.3-5.3.4-.2.7 1.8.8 1.9.2 2 1.2 5.7.6 7.5.5.1-.6-.5-.6-.9-.8.3-.4.5-.8.4-1.5-.6 0-.8-.1-1-.3.2-.1.4-.2.5-.4.1 0 .4 0 .5.1.9.2.8-.3 1.2-.5.5.4.7 1 1 1.5-.2.6-.8-.1-1.2 0 .5 1.2 2.3 1.3 3.3 2.1-.5.4.3.9 0 1.7.7 0 .9-.5 1.9-.3 2 1 1.1 3 3.6 3.7-.3.5-.2 1 .7 1.1.1-.4-.4-.4-.2-.9.7.2.3.8 1.2.4 0 .5-.2 1.2.2 1.5.4-.6.9-.2 1.7-.2v.7c1.9-1.4 4.3.6 6.3.5.3-.1.9-.6 1.2-.6.2 0 .4.6.9.6.2 0 .8-.4 1-.4.6.2 1.3 1.2 2.1.6-.4-.6-1.4-.8-2.1-1.1-.1-.4.4-.6.7-.7-.4-.4-.6-.3-1.2-.2.2-.4.1-1.2 1-1.1-.3-.3-1.9-.2-2.2 0-.4.7.8.2.7.6 0 .6-1.4.1-1.9 0 .6-1-.8-.5-.2-1.6-.8-.3-.2.5-1 .3-.4-.3.1-.5.5-.7-.7-.4-1.6-.4-1.9-1-1.2.4-1.7 1.3-2 2.4-.8 0-1-.3-1.2-.6.3-.7.5-1.3.5-1.8 3.6-.1 6.8-.4 10.1-1.7.8 0 .7.8 1.4.9 1.1-.1 1.5.3 1.7-.5.8.5 1.6.3 2.6 0-.3-2.5-3.8-1.1-5-1.9-.3.5-.6 1.1-1.9.9-.2-.2-.4-.4-.5-.6.1-.3.6-.3.8-.5.7-.1 1.4 0 2.1-.2.2-.5-.3-.5-.5-.7 1.3-.2 2.8-.3 3.9-.2-.6-.7 1.1-1 1.3-1.7.2-.2.4-.5.9-.5.2.6-.8.2-.5.9 1.9.5 2.9-.4 4.6-.8.7.6 1.9.7 2.4 1.4-.2.1-.5.1-.5.5.9.1.9.9 2.2.6-.1-.3-.4-.4-1-.4-.2-1.9 1.6-1.9 3-1.7.1.3.6.1.6.5.2-.1.3-.1.5 0 .3.3.5.7.7 1.1 1.1-.1 1-1 1.7-1.3 1 1.1 1.8 2.4 3.8 2.8-.7-.5-.5-.7-.7-1.3.3-.7 2.8-.5 2.1.8 0 .3-.3.4-.9.4 0 .5.2 1.3-.5 1.3.4-.1 1.5.7 1.9-.2.6.8 1.1 1.8 1.6 2.8 1-.4 2.7-.2 2.9-1.1 0-.6-.8-.5-1.4-.6 1.3-.4 2.6-.8 3.9-.7-1.1-.8.8-1 0-2 .7-.7 1.7-.6 2.6-.2.2.7-.7.3-.7.8.3 1.2 1.5 1.7 2.9 2.1-.1.9.3 1.4.7 1.9.9-.5 2-.7 3.1-.2v.7c-.3.5-1.5.1-2.2.2-.8.3 1.2.1 1.2.4-.3.7 0 .9-.3 1.7 1.6-1.1 2.7-2.6 4.2-3.8-1.5 0-2.5-.3-4.1-.2-.3-1.3 1.7-.8 1.5-2-.6-.3-1.3-.5-2.1-.6-.1-.4.4-.6.5-.9 1.1.2 2.7.3 4.2.3-.2.1-.3.2-.6.2 0 .3.4.4.3.7.7.2.7-.2 1.2-.3-.2-.2-.3-.4-.4-.6 2.1.1 4.1 0 5.1-.5 2.4 1.9 8.3-1.6 8.4 2.5 1.3-.2 3.1.3 3.6 1.2-.9.4-2.2.3-3.4.9-.1.3 1 .5.3.6 0 .2.4.2.7.2.9 0-.1-.3.5-.6 1.3.5 1.9.2 3.1-.3-.2-1.5-.7-1.8-.7-3.3.8.1 1 .4 1.2.8.8-.4 2.1-.4 2.2-1.3.7.2.8.6.5 1.1 1.9 0 4.2-.4 6.5-.6-.4 0 0 .7-.5.6.2.3.8.3 1.2.4-.1-.3-.7-.3-.5-.9-.1-.1-.1-.1-.2-.1 3.4-.4 6.8-.6 9.4.3-.4.7-.9 1.3-1.9.7.8.9-1.2.1-1.4 1.1 1.3-.5 2 .1 1.9.9 1.7-.3 2.2.5 3.8.4 0-.1.2-.2.3-.3.3.6.1 1.5-.6 1.8.8.2 1.3.7 2.2.4v-.7c.9-.2 1.6.7 2.1.2.1-.6-1-.3-.9-.9.2-.4.8-.6 1.7-.5-.2-.7-1.2-.2-1.9-.2-.6-.6 1.7-1.2.3-1.9 1.1.6 1.3-.3 1.9-.7.4.7 2.1.4 1.9 1.5 1.3-.3 2.6-.3 4.1-.1-.1-.3 0-.4.2-.4.4-.7-1.1 0-.7-.7.2-.6.8.1 1.2 0 0-.7-.4-1.2-1-1.5-.1-.4 1.1.2.7-.5 3.6 1.1 7.8.2 12.1.1.4-.5.9-.8 1-1.5 1.2 0 .7 1.7-.3 1.5 0 .5.6.7.9 1.1.7-.2 1-.8 1.2-1.3.8.3 1.6-.4 1.7-1.3 1.8.5 5.3.6 3.6 2.3 2.9 0 .7 2.3 1.2 2.6-.7.8-2.2-.2-3.6.1.1-.7-1-1.8 1-1.8.4 0 .5.3.4.7.5-.1.6-.5.7-.9l-2.4-.6c-.8.1-.2.4 0 .7-.6-.3-.7-.3-1.6-.2-.2 0-.4-.1-.5-.3-.5.6-1.1.2-1.7.5-.3.4.7.7 0 .7.4.5 2.3 0 1.9 1.1-.3.6-2.1-.8-1.9.5-.8 0 0-1.1-1.2-.8.1-.4.5-.7 0-1.1-.8.1-1 .6-1.7.7-.3 1 .6 1.1.4 2 1.2-.3 1.4.1 2.4.2.2.6-.3.5-.7.7 0 .2.4.2.7.2.2.6-.7.3-.5.9.1.2 1.6.4.4.4 2.5.9 10.3-2.5 11.1 1.6 1.2-.2 1.5-.5 2.9-.2-.2-.3-.4-.6-1-.6.7-.8.9-1.6.3-2.4 0-.4.9-.1 1.2-.2.2.8-.3 1.4 0 1.7 2.2-.7 5.6 1.4 6.3-.5-1.6.6-2.1-.9-3.8-.2-.6-.1-.2-1 0-1.1.3.3 1.1.3 1 .8.4 0 .2-.6.5-.7.5.4 1.9 0 2.1.6.4-.4-.6-.5 0-1.3-.9-.3-2-.5-2.4-1.3 2.2-.3 3.1.2 5.3.3-1.2.5-.2 1.6.2 2.4-.8 0-.8.5-1 1.3 3.9.6 10 .6 14.6.6.2-.2 0-.7.7-.6.1-.8-1.3-.6-1.6-1.1 0-.4.6.2.9-.2v-.9c-1.1-.3-3.1 0-4.1-.4 1.1-1.4 5.4-.3 7.2-1.2 1.4.5 2.8.8 4.6.6.3 0 .1.4.2.7-.8.4-1.4.1-2.2.3-.2 1.3 1.6.9 2.9 1 .1 1-1.9.2-1.9 1.1-1.3-.8-2.7-.4-3.6.3-.6 0-.1-.8-.9-.6.2.7 1.2.8 1.4 1.5 1.6-.3 2.6-.6 3.6.4 0 .5-.1.8-.8.8.4.5 1.1-.2 1.7 0-.2-.2-.6-.3-.4-.9 4.1-.6 7.6.1 11.3-.6-.7-.4-.2-.7-.5-1.1-1.2-.2-2.5-.9-3.4-.2-.4 0-.5-.3-.4-.7.6-.4 2.2.1 2.4-.7.9.1.7 1 1.1 1.5.6-.2 1.4-.7 2-.2.1.8-.8.8-1 1.3 3.4-.3 9 .7 13.7-.4 1.5.5 3.7.6 4.4-.5.6-.3 2.2.9 2.6-.3-.6 0-1.1 0-1.4-.2.5-.8 1.2-1.3 1.5-2.2h-1.2c.2.7-.3.9-.3 1.5-.6-.2-.8-.5-1.7-.4-.3-.1-.8-.8-.2-.9-.7-.5-1.7.5-2.4.7-.5 0-.1-.8-.5-.9-1.9.4-2.7-.3-3.9.3-.1.6.7.4.5 1.1-.7-.3-1.4-.7-1.7-1.3-3.1-.1-8.7.5-12-.1.5-.2 1.3-.3 1.6-.7.2-.1.4-.1.6-.1 3 1 7.3 0 10.3.1-.6-.3-1.5-.4-2.4-.4 0-1.4 1.6-1.3 2.4-1.1.1.1 1.5 1.4.9 1.4 3.4.8 7-.6 9.4.1 0-.8-1.6-.6-1.9-1.3 1.6-.3 3.4.8 4.3 1.6 3.4-.6 6.5 0 9.4-.3 0-1-.9-1.3-1.4-1.9-1.1.2 0 1.1-1.2 1.3-.5-.3-.3-1.1-1-1.3.3 1.5-4.9 1.9-5.3.5 0-.3.6-.2.9-.2 0-2-1.8-1.7-3.5-1.7-.1-.4 0-.7.2-.9 2.2.9 4.7-.7 7 .1 0-.6.9-.4.7-1.1 1.2 0 2.9.4 3.4-.5.4.6 2 .4 2.4 1-.1.2-1.4-.1-1.9.2 0 1.1 1 1.4 1.4 2.2 1.6.2 3 .4 4.1-.3 2 1.4 6.9.3 9.4 1-.5-.6-.2-.7-.5-1.3-2.7-.2-3.9-.1-6.8-.1-.2-.2-.4-.4-.5-.6.8-.3 2.9 0 3.8 0 1.1-1.1 3.5-1.4 4.9-2.3.3.2.6.3.7.6-.6.6-1.8.7-2.4 1.3 2.6.2 3.9.3 5.3.8-1.2.8-1.3-.2-3.4.3-.1.5-.4.8-1 .9 1 .6 3.5-.6 4.3.4-1.8 1-4.4-.2-6.6.8 0 .4.4.5.5.9.9.2.9-.4 1.5-.5 5 .7 12.5 1 17.1.6.2-.7-1.2-.2-1-.9.6-.4 2.1.2 3.1-.7.9.7 4.8.7 5.6-.3 1.3 0 2.9.6 4.1.2.2-.6-.8-.3-1-.6-.2-.5.7-.3.5-.9 2.3.7 5.9.2 8.6.8z"
                ></path>
            </svg>