<?xml version="1.0" encoding="utf-8"?>
<!-- Generator: Adobe Illustrator 27.0.0, SVG Export Plug-In . SVG Version: 6.00 Build 0)  -->
<svg version="1.1" id="Layer_1" xmlns="http://www.w3.org/2000/svg" xmlns:xlink="http://www.w3.org/1999/xlink" x="0px" y="0px"
	 viewBox="0 0 143.91 143.91" style="enable-background:new 0 0 143.91 143.91;" xml:space="preserve">
<style type="text/css">
	.st0{fill:#D3C4AB;}
</style>
<g>
	<g>
		<g>
			<g>
				<g>
					<g>
						<g>
							<path class="st0" d="M122.01,138.66c-17.6,0-46.23-16.41-73.29-43.46C13.76,60.23-3.42,22.64,9.61,9.61
								c13.03-13.03,50.62,4.15,85.59,39.11c34.96,34.96,52.14,72.56,39.11,85.59C131.36,137.25,127.16,138.66,122.01,138.66z
								 M21.74,8.05c-4.32,0-7.8,1.13-10.19,3.51C0.02,23.09,17.93,60.5,50.67,93.24c32.74,32.74,70.15,50.65,81.69,39.11
								c11.54-11.54-6.38-48.94-39.11-81.69C67.26,24.69,38.34,8.05,21.74,8.05z"/>
						</g>
					</g>
				</g>
			</g>
		</g>
		<g>
			<g>
				<g>
					<g>
						<g>
							<path class="st0" d="M21.9,138.66c-5.15,0-9.35-1.4-12.29-4.35c-13.03-13.03,4.15-50.62,39.11-85.59
								c34.96-34.96,72.56-52.14,85.59-39.11c13.03,13.03-4.15,50.62-39.11,85.59C68.14,122.25,39.51,138.66,21.9,138.66z
								 M122.17,8.05c-16.6,0-45.52,16.64-71.5,42.62c-32.74,32.74-50.65,70.15-39.11,81.69c2.38,2.38,5.87,3.51,10.19,3.51
								c16.6,0,45.52-16.64,71.5-42.62c32.74-32.74,50.65-70.15,39.11-81.69C129.98,9.18,126.49,8.05,122.17,8.05z"/>
						</g>
					</g>
				</g>
			</g>
		</g>
	</g>
	<g>
		<g>
			<g>
				<g>
					<g>
						<path class="st0" d="M143.91,71.96c-70.11,1.02-70.94,1.85-71.96,71.96C70.94,73.8,70.11,72.98,0,71.96
							C70.11,70.94,70.94,70.11,71.96,0C72.98,70.11,73.8,70.94,143.91,71.96z"/>
					</g>
				</g>
			</g>
		</g>
	</g>
</g>
</svg>
